/* XPM */
static char *result[] = {
/* columns rows colors chars-per-pixel */
"47 67 35 1 ",
"  c #A36D3F",
". c #9F6C44",
"X c #8E5A3B",
"o c #9F7857",
"O c #A87144",
"+ c #39241B",
"@ c #935F3F",
"# c #A26C3E",
"$ c black",
"% c #A56C3C",
"& c #89573B",
"* c #35241C",
"= c #724134",
"- c #A87041",
"; c #9E6C40",
": c #6C3B2C",
"> c #9A6F3D",
", c #9D7B4D",
"< c #7B4A39",
"1 c #AD754B",
"2 c #9D683C",
"3 c #61393A",
"4 c #7E4C35",
"5 c #986F4C",
"6 c #63342D",
"7 c #9F8167",
"8 c #050000",
"9 c #968A7B",
"0 c #969FA5",
"q c #A2794D",
"w c #A36F44",
"e c #92AFC1",
"r c #140C0A",
"t c #572F23",
"y c #9F5A57",
/* pixels */
"r$$$$$$$$$$$$$$$$$$$$$$$$$$$$$$$$$$$$$$$$$$$$$r",
"8r*******************************************r$",
"8+7q11111111111111111111111111111111111111117+$",
"8+o.%%%%%%%%%%%%%%%%%%%%%%%%%%%%%%%%%%  %%%#o+8",
"8+o5w w...............................;.; w.o+$",
"8+o5wwX=:::::::::::::::::::::::::::::::=X  .o+$",
"$*o5;#X==<<<<<<<<<<<<<<<<<<<<<<<<<<<<<==X%%.o+$",
"$*o;  X<&.OOOOOOOOOOOOOOOOOOOOOOOOOOOO&=X%%;o+$",
"$+q;  X=&2############################&:X- ;o+$",
"8+,>  X<&2                           w&:@O#;o+$",
"8+,> -X<&2                           .707%#;o+$",
"8+,> -X<&2                          ;5907%#;o+$",
"8+,> -X<&2                           5907%#;o+$",
"$*,> -X<&2                          ;5907% ;o+$",
"$+q; -X=&.                           5907%#;o+$",
"8+q> -@=&;                          ;59e7%;.o+$",
"8+,>#O@=&2                           .795%w.o+$",
"8+,>#O@=&2                           O=r4O;.o*$",
"8+,>#O@=&2                           w4tXw;.o*$",
"$+,>#O@=&2                           w&<X##.o+$",
"$*,>#O@=&;                            &=X%-.o+$",
"$+q; O@:&.                           #&=X%%;o+$",
"8+,> O@=&2                           #&=X%%;o+$",
"8+,>#O@=&2                            &=X%%;o+$",
"8+,>#O@=&2                            &=X%%;o+$",
"8+,>#O@=&2                            &=X%%;o+$",
"$+,>#O@=&2                            &=X%%;o+$",
"$*q>#O@:&.                            &=X%%;o+$",
"$+q; O@:X.                            &=X%%;o+$",
"8+,>#O@=&2                            &=X%%.o+$",
"8+,>#O@=&2                            &=X% .o*$",
"8+,>#O@:X.%#;##                       &=X% .o+$",
"8+,>#O@6Xw2;># #                      &=X% .o*$",
"$*,>#O@:&.799o#                       &=X%%.o+$",
"$+q>#O@:X50ee9#                       &=@-%;o+$",
"$+q; O@:X50ee9#                     #-X6@-%;o+$",
"8+,>#O@=X50007%                     #-X6@-%;o+$",
"8+,>#O@:X..55.%%                    #-X6@-%;o+$",
"8+,>#O@=&2%%%%##                    #-X6@-%;o+$",
"8+,>#O@=&2 %- #                     #-X6@-%;o+$",
"$*,>#O@=&;  w                       #-X6@-%;o+$",
"$+q; O@:&.                          #-X6@-%;o+$",
"8+q> O@:&2                          #-X6@-%.o+$",
"8+,>#O@=&2                          #-X6@- .o+$",
"8+,>#O@=&2                          #-X6@-%.o+$",
"8+,>#O@=&2                          #-X6@-%.o*$",
"$+,>#O@=&2                          #-X6@-%.o+$",
"$*,>#O@:&;                          #-X6@-%.o+$",
"$+q; O@:X.                          #-X6@-%;o+$",
"8+,>#O@=&2                          #-X6@-%;o+$",
"8+,>#O@=&2                          #-X6@-%;o+$",
"8+,>#O@=&2                          #-X6@-%;o+$",
"8+,>#O@=&2                          #-X6@-%;o+$",
"$*,>#O@=&2                          #-X6@-#;o+$",
"$+q>#O@:&.                          #-&tX-#;o+$",
"$+q; O@:X.#                          >79o% .o+$",
"8+,>#O@=&2                           59e7% ;o+$",
"8+,>#O@=&2                           5907% .o*$",
"8+,>#O@=&2                           5907% .o+$",
"8+,>#O@=&2                         #w5907% .o+$",
"$*,>#O@=&2                           5907% .o+$",
"8+,>#-X=&.                           5707  .o+$",
"8+,> -X<&;                           w<*4-%;o+$",
"8+,>  X<&2 #########################2q4t&%%;o+$",
"8+o5 -X<&;OOOOOOOOOOOOOOOOOOOOOOOOOOO1@=@w ;o+$",
"8+o.#%X==444444444444444444444444444<<=:@-%2o+8",
"8+o555@333333333333333333333333333333333@5.5o+8"
};
