/* XPM */
static char *_4596b4cec5c4320a6c9f025363fc71b9ZL7EHHsWemqvMAn[] = {
/* columns rows colors chars-per-pixel */
"65 65 88 1 ",
"  c None",
". c #BB4200",
"X c #BA4300",
"o c #BB4300",
"O c #BB4201",
"+ c #BA4301",
"@ c #BA4202",
"# c #BC4200",
"$ c #BC4300",
"% c #BA4400",
"& c #A14811",
"* c #A14816",
"= c #A14817",
"- c #A14818",
"; c #AD5513",
": c #AD541E",
"> c #BE7000",
", c #B0770C",
"< c #B96917",
"1 c #BE671E",
"2 c #BE671F",
"3 c #C65000",
"4 c #C85000",
"5 c #C95000",
"6 c #C85007",
"7 c #C85008",
"8 c #CF6800",
"9 c #D36600",
"0 c #D26700",
"q c #D36700",
"w c #D66500",
"e c #D46600",
"r c #D46700",
"t c #DB6301",
"y c #DB6302",
"u c #DC6301",
"i c #D96403",
"p c #DA6F00",
"a c #DB6F00",
"s c #DC6E01",
"d c #C17000",
"f c #C47500",
"g c #D77000",
"h c #DB7200",
"j c #C2761F",
"k c #E07703",
"l c #C37421",
"z c #C87C25",
"x c #C97D26",
"c c #CC7C27",
"v c #CC7C28",
"b c #E69006",
"n c #E69007",
"m c #E69008",
"M c #EB9D08",
"N c #EB9D09",
"B c #E99D0B",
"V c #F39915",
"C c #F19A15",
"Z c #F49915",
"A c #F79F17",
"S c #EBA007",
"D c #EBA107",
"F c #ECA007",
"G c #ECA107",
"H c #EBA008",
"J c #EBA009",
"K c #EAA00A",
"L c #EBA00A",
"P c #EAA00B",
"I c #ECA008",
"U c #ECA00A",
"Y c #EDA00A",
"T c #EDA10A",
"R c #EAA00C",
"E c #D1842B",
"W c #D0902A",
"Q c #D79F2F",
"! c #FA8B2F",
"~ c #FB8B2F",
"^ c #F98B30",
"/ c #D8A030",
"( c #D9A132",
") c #D9A134",
"_ c #DAA334",
"` c #E2A23E",
"' c #BD8643",
"] c #DF8D49",
/* pixels */
"                                                                 ",
"                                                                 ",
"                                                                 ",
"                                                                 ",
"                                                                 ",
"                                                                 ",
"                                                                 ",
"                                                                 ",
"                                                                 ",
"                                                                 ",
"                                                                 ",
"                                                                 ",
"                                                                 ",
"                                                                 ",
"                                                                 ",
"                                                                 ",
"                                                                 ",
"                                                                 ",
"                              'zvcE                              ",
"                              j800h                              ",
"                              l0wws                              ",
"                              zgppk                              ",
"                              `CCZA                              ",
"                              ,>ddf                              ",
"                              )BBBI                              ",
"                              )RIII                              ",
"                              (LLFF                              ",
"                              (LLSS                              ",
"                              QLLLL                              ",
"                              Wmbbb                              ",
"                              <00ww                              ",
"                              2iyuu                              ",
"                              2iyuu                              ",
"                              2iyuu                              ",
"                              2iyuu                              ",
"                              2iyuu                              ",
"                              2iyyu                              ",
"                              2iyuu                              ",
"                              2iyuu                              ",
"                              2iyuu                              ",
"                              2iyuu                              ",
"                              ;3444                              ",
"                              &%$$$                              ",
"                              *..$$                              ",
"                              -...$                              ",
"                              *..$$                              ",
"                              :7666                              ",
"                              ]^!!!                              ",
"                                                                 ",
"                                                                 ",
"                                                                 ",
"                                                                 ",
"                                                                 ",
"                                                                 ",
"                                                                 ",
"                                                                 ",
"                                                                 ",
"                                                                 ",
"                                                                 ",
"                                                                 ",
"                                                                 ",
"                                                                 ",
"                                                                 ",
"                                                                 ",
"                                                                 "
};
