/* XPM */
static char *Role_Playing_Game___Battle_Grid__1_1702306563[] = {
/* columns rows colors chars-per-pixel */
"65 65 49 1 ",
"  c #262729",
". c #2B2E2B",
"X c #2F312E",
"o c #31332E",
"O c #2C2F30",
"+ c #2F3233",
"@ c #333534",
"# c #363936",
"$ c #393B37",
"% c #343739",
"& c #363A39",
"* c #3A3D3C",
"= c #3E413D",
"- c #41433E",
"; c #3C3E40",
": c #3E4242",
"> c #434543",
", c #484647",
"< c #464945",
"1 c #494B47",
"2 c #444748",
"3 c #464A49",
"4 c #4A4D4B",
"5 c #4D514D",
"6 c #51534E",
"7 c #55584F",
"8 c #4D4F50",
"9 c #4F5251",
"0 c #535553",
"q c #555954",
"w c #595C56",
"e c #545758",
"r c #565A59",
"t c #5A5D5B",
"y c #605F5A",
"u c #5C6057",
"i c #5D615C",
"p c #61635E",
"a c #5B5F61",
"s c #5E6261",
"d c #636562",
"f c #686762",
"g c #666964",
"h c #6A6A65",
"j c #636768",
"k c #666969",
"l c #6B6D69",
"z c #6D716D",
"x c #6F7371",
/* pixels */
"--15-$o$$-16571---6$-5,,1,,,,88,2; 2888095555535:=955,48,4,>,648=",
"><1-$--1-6666-7-6----6,41488,,8882%,8e689979970055we0erreye8eerye",
"51-$-5666676777-154$-6163388,808e8;,80085qqq557q53e00we0rre608ey9",
"---1566176667777164$16,483828000ee;,,0045555450032re0e000686e0ee5",
"$-57611767707w76565$,64,888,88eere:38804q559559q42te7eee80erye009",
"#-66-67777qw7777676$>086e88888err8;:444455:955594<ee800040ryte865",
"$17167767777q077775$>0e0e888,80ee8::4954:::9:54544e8680e0eyse0ee9",
"$-7767777777767qww1#,erre888880898::99w0557::5594204480000ere0669",
"---7767766w66w777t6$@erree000e00e8::4e0009953354,,080e8808ee0008:",
"-1-77777776765067t6*$,>eye0868449:::9e0009q95550e,e0680ye6ee00809",
"177--p77705605wtyf6@$4>6ee008848a::e4959995955500>0e000e0eee0087:",
"$--$-76777756tey5,-**,>37eee0000ae::3459999995508@,0ye0eeyyree809",
"$-1--1-6556600,,@,7=&38,ewee0868e::28845755755556$,80ee7rsfeey809",
"16616---76>44*+@*18=,,,6e7668440ae:8334555554345,$3480e0rry0000e:",
">4,,---755>,,o+@:0e*8w6806880006ae;:8284:1514<55,$348000ayare0yy5",
"*6416161114,,>@>46w:*>4884860055e8;:83835145455q8:84888afrjfaeyj:",
"@66765146,,--6$$,4*%8$8y5<::51>@>p$@-<-,<<1,-$=1**44,=,554553:45=",
".------=$$-o$-o$@$%*,#-,==#=$=$@*>>741>--<,,>=-1@,sww0q6766quiii=",
"-6155646,,7,6666-$40516,45756999e-4q->-<1>>1>>>,:3kkfwppuuisglsk9",
"1w67677768y7767y,*yy0yy67quiuwtwy554>4<,,<-<><<112fypywpuuusgiss7",
"-6,6666676664667:+q00wq07qqqqquqe6>4<1,<<<<<<>1,,,p7tpw7qquiiiii:",
"-7666777w76686663=0uw067qqqqqqqqw6>1>-1<1,1--<,1,>y7typ7qqiiggdi7",
"-6877000676666663=:uuq67quiuuirqr1$1>,11441,>>,11-qqwqwwuuuuiiuq5",
"-666w7766776y677:o#q66q0iiruqquqy6@*-4>,5651<<1,11wqwtppu7uugdu95",
",6666677y77y7666:X=uq75quiiuuq6ue=o*=11,64,-,1,511qquiuuu7uiiuig:",
"-66,66yy,6666,,61=:u6uu37uuiiuuq7*.@$-,->>,551>4=:uqquuuuuquigii=",
",76,667y6766666,=.=70ui7quurwuwqt-.$*>>><<165<->==iqquuquuuuuiuu:",
",7,,,66,666,6706:==1u07u9ruuqqwqr,$,155155,11<<1=<iqquuquuuuuquui",
",6,6666666686yyf5==-uu7wqquuuwtpw,>6566464,><460=1iuquuiiuquuuusd",
"-76677686ye066yy7.:5557wuu0qwwwtt,>6514664,<,500=<u7qquuuiiiiqqsi",
"7777766w6wyy6,6yu==i011577urtq65f4,6,5564454146525iuqruuujiuuuqii",
"177766yyfyyyy8,74=:zzi1=3uuqtwwdh6,65,586145,155<9suruuuiiq5uiiig",
",00e,-rr864,88,,>**rtyye5=5ur0s69::000rr9q5q5qu953quuqquuu<<7u5uu",
"$*>>***@*34,**%*@*@=*:313=&=:==&@@%::333333:::&&&&3::<::::==<<=<=",
"00se60=*>404:$%%#8eye66,4<==::$@>955:49535<:33:3:353<55<<55555<51",
"wyhr8,*>3333,;*@-e08467e663=:4>$3siqqqrq9uu5uuqu3:33<<<<<5555<5<1",
"0tt63>:33434423:*08607eriq451,>=:rrqqq99quq55q553:3333<5<<55555<:",
"603,3>,4,1,,2,,:*68700tyswrr415@:uqqrq9qq5qq355u3:3333<<<<55<<<<1",
",63>,>2344>4,,3*#66776qpttw0577$5q5q9qquuuqu55q5::533553<55<<<<<1",
",64,::>4>22,223*$44767wwpw56661$<q7qqqqru555q<55:&335333<55<5<<<1",
",64,>>,,>>>>>4,$*y5677eyyq6706,-5q5q95uiuji5u<<q::3::<<<<<55<<<=:",
",4,>*,:,>>>2>;::-7e67yywyw7066,-=7q59uiuiiiq55u5::95::<5<5<555<<:",
"1,13;>>>,>*>2;@@,7t0677etwe76761=u5qqiiiuuu953u5::555535=55<5555:",
",,,,,,,:>**:4>;$,yyw750wpyq76ew7<uquiiuiuqu95<3q33u3<:<<=<<<<555:",
",-,,>,,>;:,,:33=<giiyewypww000wu<uqsiuqiqqq95:<533q3333353555555:",
",,,-*,,-*;>,>94+=llst7www670qqii3iquqqriq5q93353:&:3553553555353:",
"-8,,,,,*$*>2805&3uzdpe006456ttsw<uqqqriiq9535q9:&&55555q595q5355:",
",80,3,>*>3>>4423i3kdlgy04,44ewi0&5ussisruu35uu53&&::39955q<:3<<<=",
"@;;#*:&+**%%:+%:5*:><32>*@&*&&:%::3393:33:+&:::+++&++&&:::&:<:<:=",
",8,,84:*944::::+;>53554442>>4:&=e93333392399:&53&&+&:333553qq553:",
"0000e933sairae8:3dy7w00tgddajs5ejsaaajssajjja9s93&+33555555q5555=",
"8000988e09rsasa:4ie0tqwjdddtks4taaaaaaaraaaaj99sa:&355q535355555=",
"8e088,49a:reeaa:6yyphpfhatdadh5tjajrrrrraaajx5333:&9555q<<555q55=",
",888er9earae9ea:7phfpfhpdtdfdk4raajairrr9rar93jj3&:q3535<<5<5555:",
",88eyatrraaaeea:7yhffhffffgggl40qqassiuriirr9uxjj&&55r355<<<5555<",
"8eaafattrajaaea:wppflhyfyfffhl26q5issairqsrruigjr+3r953q5<5<55331",
"rijsiaaaaejarer:wfhhpffppfgfii:95rqriijuquisjiixu#<7<55<<55<55<51",
"9ijsasreraijar::wfzhhpfpfhdq9s::59q99qqu9risjsjju#<755<5<55575<55",
"rassssa99srra:::0phlhpffffi539::99rq999riiiiiiur<#5555<755<5775<1",
"rrsjsr9rrrrea:::5wfhfpflpwwq05:eiiirqq9qjsriuuq3=<<5<5<7<<<577555",
"eraar539e9eraaj:6wffppffpppps:::iisisr9raiasiqq<=5<555<<555555575",
":rrre99rreeaasj:tppppppppfhds:::jjjssu5rrisiuqqq<<=5555555u555575",
"9eqrrrrae99aajj:fppppppyppgdre:=rjsjs95rairr9qqu&&=<<<<<7uu555554",
"reqraeeaaraajje:ppppphhpfpdkae+=:rijs55sair5qr75&&u5<<5<555557555",
"::9999eeersrrr:=e4:qq995uq533:O+%:33:3443>9e433;%;34<53&*:=34593+"
};
