/* XPM */
static char *result[] = {
/* columns rows colors chars-per-pixel */
"69 68 69 1 ",
"  c #4F8633",
". c #5F9F37",
"X c #548A37",
"o c #72BC41",
"O c #518936",
"+ c #5C9F34",
"@ c #5C9C38",
"# c #5A9C33",
"$ c #609F3A",
"% c #5F9C37",
"& c #528C34",
"* c #5C9937",
"= c #5D9F38",
"- c #528635",
"; c #5A9736",
": c #589437",
"> c #75BD46",
", c #528933",
"< c #569035",
"1 c #4F8A32",
"2 c #64A53C",
"3 c #69AD3F",
"4 c #72C041",
"5 c #70B742",
"6 c #67AA3E",
"7 c #6DB53E",
"8 c #6EB442",
"9 c #3E6328",
"0 c #5FA337",
"q c #4C8130",
"w c #5E993B",
"e c #4E872F",
"r c #6BB13E",
"t c #76C245",
"y c #4B7A30",
"u c #569433",
"i c #6CB142",
"p c #72B946",
"a c #65AC3A",
"s c #64A939",
"d c #416A2A",
"f c #528E30",
"g c #558C38",
"h c #6FB93F",
"j c #68B03B",
"k c #54873A",
"l c #579831",
"z c #45722C",
"x c #87E14C",
"c c #61A638",
"v c #528038",
"b c #5B933C",
"n c #7ACC45",
"m c #619D3F",
"M c #8FE655",
"N c #83D84A",
"B c #98ED5F",
"V c #B8FE86",
"C c #69A744",
"Z c #7BBA55",
"A c #A0F469",
"S c #7CC24E",
"D c #AAF876",
"F c #90D563",
"G c #7FCD4D",
"H c #99E06A",
"J c #86CA5B",
"K c #A3E875",
"L c #70AB4C",
/* pixels */
"vkkO:ww%%**;wmm$%%%;ggX*h6 --kXXXXXvydd99ddddddSVAwzvvvv-kkkkkkg qkkk",
"vXO&w$$%l5Gns#####%%*@*;u:<,OOX OO e--qzd99999qxAFz9d9ddddyXOXOqpSf-k",
"vX,O<b:#7VVMN83aGoccc03==.$bXk-bXqZH$f:;:,vyydZDne9dd999dzyk-O ;AD3-k",
"vXOOO::nxAAxxa:$i3626>Haaacw<qbDH0MDt*$.$$$$$lGA4u$2222$%;<1,11CNN@-k",
"vO ,%>onNNxxxuq    elc3r7oiw<e2BMn7ns*%%%%%%%+coaipppotoSH>#*:&<rpekk",
"k&f3i83s6i4t=e,,OO1u3r3sc+=$m$+4nal4ns%%...@%$**@%@@*s>33K50s362KAp&b",
"Lp88s:X&f<uu<:bb:b<6>r22c0=@@@@##;sxM4#=+=##+666666637os8r662@:uMBt2L",
"y,<bCmb$$$.=.==$$$%.0s223rip58pi62+tG0:*#0sar>tttttt>>h>K2&e,qy-#6&vv",
"999ddzm$$$$@@=......++<ee&eJC;22ip55ias8>oo5i362222=@*5*e OOXy9d99dd9",
"9d9LZdm%%$$$%%@@@@;uu<&O&O&&,q e1&u@2855s.@fef<<<<&qv C<e,,,O d9ddddd",
"9ddvky*=%$$$%%;l;;::::::;;;;*;::u;;u;##ll;laFScsaas$$=si:,,,XOvz99999",
"yvX-,,<$$$$$$#ZH#@%$$$$$..@##+0sas=$2a3rr8jxVA4rii6$$$@*f1O,XXgkvzzzy",
"vgXXXO&*#%%%=liSl##@**;;;:lsnNNABNniii3622.tMMc1<<&1&&&&&:****@*w:<&k",
"vg1   ,#a77788rj58885i2:y;iGDVBAMxN<Oeee   f7j;:;**%$@=$=%.==++.+rKJ ",
"vg:L6r5>>o558rCC63633ip>>>%hAAMxxxryve,,XO,b**$$...$$@===...$$w$#tDB*",
"vymVGo5jc++leyd9zqqqqe1<w&q<ht450uqy-&&gg&&u$@%%%%$;l*@w**:<:::*#anhb",
"dm5Sl;$$$=.=.%%;*%$23662@m*efuu q-Xgw%%%%%%w%.@*uufCF3=11O&u;**@$#=uz",
"zp:z99zq1:;;*%$c5t>5ot4444p8po>:OOX:$%$%$%%$=@.0ca3VKh0u*w$+.$$w;::Xd",
"zm-yyqyqq1&&<;@0+&vzz6>ooooot7%gXOX:$%%%$%$=#s5h>>8S3#%.+=+%*&,<1-OOy",
"vOgg&&u$22222.=+*9999zqqyyzqw;eOXXO&;%m%%%=08ooh60+#=$%%%.#1&CCHGfOOk",
"vkXO&#+hhj666.+0@ebm3Cd9999dq,&OXX&&&<*%%.+0r7p70+#==%$$$.%1hDBMM#1gk",
"vXXX:#5DMjl#+===l283#ezyZS@ ,--      ef######+0ar5>7s2.@$..#4MNn4f,Ok",
"vgX-X&>VBN7hhh555iri633SVAxj666666636ssajjjr777hhKDxn553+..@=sc##=*&k",
"dy----<St7rrrrjr785>o>>tMMx4oppppppp55557r557j3$>AAxxmbmw;:<X ,:@+=@y",
"99zX,,,ee1OO  ,O1&&&<bb<.o3@==$$$.+..+0+pS+..==;7xNxx:yqk----&<ul##$y",
"9zqg&O --   q -     qq--qqq ,&g&fu#8p5o7KK7>>>>p>xxxNrip6666663rjja$v",
"yggXO<@$m$$2+.222662pS3i3C666622a385@:::2$;****ww$33s0ZVJcr587778iiwv",
"v,--<8o55857HJ7p555rFK533iiii3ii62$u1 --  ------  q    KKq<%####*<&&k",
"v,f$5r=+##+lFSl$@@@@@=l1 -   --  OOOXOOOOOOOOO-gww<XgX1bmOgw.+=+%%%:g",
"b67i6======.##%@@%%$.+=:OgOOXg&gXXOO--OXXXXX&gg<@mw&XXOO k-Xbw===+$$m",
"Ca+#*=+=++#0pp58r6c.+#@*;*;gqyqq 1&<<;;;*%**%%$$.%w&OXXXXOXXXOfl#@@2L",
"bcnnc@@=#0r7o>>oo5557js00=.%ee&<*@$$2#l=.=++$%%*::<,X------ 1 ucas++$",
"mFVB40220i>oooo7aasarhoo5s#+020.=.#lfZJ::u<&g1O  qqe,&:*;;*$235>>>p7i",
"mSAMtpppphooooooo>o5.+s332w@*;*;;upF>iZ:u$i883336ZS5o>>t>>>tS>op83ssC",
"b+7ju:;;@0cj75558783+#::fX  g: wp8FVBGippp>838558HFc2$@*;**;bq w%*;;w",
"b$****@...=@@@w*uu;3NG0u;;;fZD<gw:uGM4<<<<:g- ,&X,, -- ---yz9999ddzew",
"w2$$@ss.#;<ggXX,,XlMVMn#++++cpmwb:<+cu&&&1  O  OXXXXXXXXgv99d9dzyqb%m",
"v:@@#32f:XO,,- -,,fGBxnl+++=.#..$@##;*%.$===@.2& - -X--XXvzzyvkkgg*.b",
"d OOOeq&b&11&;2ii88tNN45hhh3u;:2p83ssccr5poooo>32$;ufggq kkXXgXOOO&<d",
"gm@%@0caj3ii8p5r6ss+pD>0ccc0*;;0o>>>>>ooooo55hh>tt>>SFD>ugX,  O  11:g",
"Ltooo4oooo7a0l@*ll*;$Fil*;#*@====0csaj5pp>4oooh7rj7rGBDMto5r2@@*=srhZ",
"Lo7hooooo>oopp88js222.c66222c00=+##====266rhhp>>57j++NMNj7ho4t>ttttoZ",
"mspr@::<u%$$$$2223iii8ii888887h57j0@%*w:<<<ee<*%.2385j5s;#+.0s3r77rjC",
"b#acg-qLJ     ----O qq eee11fj>5o>$1&&, -- ZZ   i6$8p2q 1;=%%%%#@+++@",
"b=u<XXqZV:OXOOXXXXX&;2226666iS*&<<&OOXX,k-,HF1< CCww<&OO<$.%...++is#%",
"C73*,--gm,OOO-XXXg %>tttpi30u:OO,ee eqeX--O:fJDiq-  -   &@=$=%#sh4h78",
"L>tpw<<&,&XX,,kXXqmK>@$*1   vkk-urse2Jie-,, gMAN&f<<:;;u;@.===37hhoo>",
"C3sc.=iC@%@%*u&XX&JVJqk- yyzddddtBDsFVB%,g<<<7Nh;%%@.++++..==c>n4horC",
"b=@%@#KJl0=.%%%<q0xxn-k-----vvy NMA7NMxal%@@@#%#++06ajrr75ooooNVBo7+w",
"b$$$@@2pa#=%%%=:,rxMt:;;****@$@@jnh#jntaajjrr888r7p>>>oooh78rnMANc$=m",
"b$.==#tVDc@..%$%$0tna#==...====$%#+.shp>4ttttoooo>>ppohoi@;*%aG4#:*+w",
"b$$$%0xBBju=#@@++.#+=#**@*;;;*;;*wwlr>2#;<&<<<:::;:::<<:<X CK,X-,X&*m",
"gb&&efnxx+lssasj+&&&111&&&&:<<<<&1fl8pfqyzzzdzzzyqq-----,kO&mOkkgXXXb",
"vOu*$2hnnr8ooo4os+266ii5pp>>>>>pGH>>o>8ii662.#uf1eq   -OOX&& O,X,O,,k",
"vm>>>t>oot4ooooho>oop88i362c22223Z336i88pp>>t>>>p5i62$;:fee  <<    1k",
"vw5o5558r3r336sss0..=##uf<&,O   q OO ,,&g&<:ww$26rhtoo>>77p6;r5;w;::g",
"v&f<<g&OOOO<uu*@=$==.#+o8=w%*:<<Lg-OO,XXO----   O wHohoo4KDxnoooooopC",
"C552 -OOOOO1111&&<;*##HBxa*$$$%0Fm<&&&OOXOOOXOXk   2ohohnBMxnhoooo>4p",
"C6#f&*w;;;;:<<& gwe&&&FBNs;.$$..l=..#;:<&,-O-k  ZZc7444onxxnoiiriisaL",
"g:u;*$#+##==.$beHDwqkk132kgf<u;*==.$$.+llw<&1&@pVAti6$@*u2$f 1,11bLc:",
"b$...#JHFt0++=b,MBq9ddddzy -XXX&<<:*@@sSi#=c3pppGGl  q OOk-,gXggqZVB>",
"<+..#jDDBB7<<qyd2.999yqqyd99dzyq -X&,fHVBj8p8a0#l0C;u<<1qqyyyyyyO2Mxp",
"Ci:;1#xxNxs999dddzq&%>ttS8< yzdddzzq,@MMx5.$#@$$@iF..=#lf,qyzzy w+0nC",
"ws6360tNNxj$635o>S>>o7rj75>>>p>5i3arptnxnlffu;;;@#l#+#>HG3$2..$$@+##m",
"Ch>tttoo4ot>oh7>73aarrrip5o4tjc6jr85pto7hp>>p7arjj33a7MVBt#$%@@63a63C",
"Z>888755555c033r8p77622$@$mmm<e   OX&<fZiw22m6J3i3333>xxx4;..=+roo>>Z",
"b:<::;*%$$.%288r620.<-qmFCOO-&&OXOOOXO Zmyyz9dLyzy   <GxN@,<:*;l@;;ub",
"vkOO-k-bwwwmmwwwwwww<kXJVHbvkkvvvvvyyyz9dd999999ymzzzyXm<-k--------kv"
};
