/* XPM */
static char *_a06dade50c64cb6a06ba642d03f1099JJQigsFlgUr1gBJp[] = {
/* columns rows colors chars-per-pixel */
"65 65 221 2 ",
"   c None",
".  c #080608",
"X  c #1C0F0B",
"o  c #1C150D",
"O  c #1D1914",
"+  c #1C1715",
"@  c #0C1013",
"#  c #290A07",
"$  c #3D0C0F",
"%  c #24150B",
"&  c #231D1C",
"*  c #291B16",
"=  c #381A18",
"-  c #30130F",
";  c #382B05",
":  c #29221A",
">  c #382918",
",  c #372F10",
"<  c #271C22",
"1  c #361F21",
"2  c #242324",
"3  c #2B2423",
"4  c #2B2B2A",
"5  c #282726",
"6  c #342C24",
"7  c #3B2C23",
"8  c #382829",
"9  c #31312D",
"0  c #393229",
"q  c #2D2E31",
"w  c #343334",
"e  c #3C3B3C",
"r  c #3A3736",
"t  c #332F30",
"y  c #450C0A",
"u  c #461817",
"i  c #561C1F",
"p  c #493C0B",
"a  c #443915",
"s  c #4B1A23",
"d  c #472826",
"f  c #542428",
"g  c #483727",
"h  c #51362A",
"j  c #552931",
"k  c #4A3C35",
"l  c #463C3A",
"z  c #543736",
"x  c #412C31",
"c  c #6C3C3A",
"v  c #534713",
"b  c #564627",
"n  c #4D4135",
"m  c #42413C",
"M  c #4E4538",
"N  c #554C3C",
"B  c #554536",
"V  c #5B5120",
"C  c #714339",
"Z  c #67563B",
"A  c #675231",
"S  c #76652C",
"D  c #766539",
"F  c #6B6335",
"G  c #3C3D43",
"H  c #433C44",
"J  c #3C4345",
"K  c #434241",
"L  c #484A49",
"P  c #484646",
"I  c #544B44",
"U  c #524C4A",
"Y  c #564A46",
"T  c #5C5346",
"R  c #554E55",
"E  c #545354",
"W  c #595455",
"Q  c #5B545C",
"!  c #585859",
"~  c #4D5350",
"^  c #634B47",
"/  c #754747",
"(  c #63544A",
")  c #62584C",
"_  c #685947",
"`  c #765E4B",
"'  c #635452",
"]  c #645C54",
"[  c #665C59",
"{  c #735E54",
"}  c #5F605B",
"|  c #75634C",
" . c #7B664D",
".. c #6A6259",
"X. c #736355",
"o. c #796D5D",
"O. c #746959",
"+. c #766D52",
"@. c #545E60",
"#. c #656263",
"$. c #6B6363",
"%. c #6B6A65",
"&. c #69686B",
"*. c #7B6C64",
"=. c #766C66",
"-. c #7A756B",
";. c #6D6C72",
":. c #786771",
">. c #7B7A7A",
",. c #777376",
"<. c #6F756F",
"1. c #862E3A",
"2. c #836B39",
"3. c #8C7639",
"4. c #9A3647",
"5. c #883A47",
"6. c #A5384B",
"7. c #94444F",
"8. c #AA495A",
"9. c #817243",
"0. c #816D58",
"q. c #897953",
"w. c #937D5C",
"e. c #907856",
"r. c #847669",
"t. c #837A73",
"y. c #8A7D74",
"u. c #837E7C",
"i. c #867576",
"p. c #8A7567",
"a. c #9B8749",
"s. c #968758",
"d. c #A48D5C",
"f. c #AB995C",
"g. c #ADA052",
"h. c #968467",
"j. c #8D8174",
"k. c #8A837C",
"l. c #81807B",
"z. c #93857B",
"x. c #9D8C7C",
"c. c #958978",
"v. c #AC9C6A",
"b. c #AB947B",
"n. c #AB9472",
"m. c #BAAA69",
"M. c #BBAD7C",
"N. c #BCB171",
"B. c #CAB475",
"V. c #C1AD7A",
"C. c #DDCC7A",
"Z. c #EBDB6A",
"A. c #ECDD7D",
"S. c #EAD872",
"D. c #F1E072",
"F. c #F3E079",
"G. c #7C7E88",
"H. c #8B7F82",
"J. c #8A8584",
"K. c #8C8984",
"L. c #898989",
"P. c #938B85",
"I. c #96918B",
"U. c #8B8A93",
"Y. c #8D8590",
"T. c #939395",
"R. c #9A9798",
"E. c #908E91",
"W. c #A99686",
"Q. c #B69B85",
"!. c #A69C97",
"~. c #A9A19B",
"^. c #B7A999",
"/. c #B1A58F",
"(. c #9A9CA6",
"). c #A49BA2",
"_. c #A6A6A7",
"`. c #B5ACAA",
"'. c #BAB4AA",
"]. c #B3ABB3",
"[. c #BCB3B4",
"{. c #B8B7BA",
"}. c #AFB2B6",
"|. c #CCB781",
" X c #C5AE98",
".X c #D3BC9B",
"XX c #C8B894",
"oX c #C3B6AA",
"OX c #C4B8A4",
"+X c #C4BAB7",
"@X c #D9C785",
"#X c #E6D385",
"$X c #ECDB84",
"%X c #EADB9D",
"&X c #F2DC89",
"*X c #F3E388",
"=X c #D5C2AE",
"-X c #CAC2B8",
";X c #D9C8B5",
":X c #E6D0B5",
">X c #F4E0A5",
",X c #BBB3C0",
"<X c #C8BEC3",
"1X c #C9C6C8",
"2X c #CCCCD2",
"3X c #CDD0D7",
"4X c #D4D4D5",
"5X c #D5D5DA",
"6X c #D8CEC9",
"7X c #E7D9C8",
"8X c #F2DFCB",
"9X c #F8DEC5",
"0X c #E4DED3",
"qX c #F8E3CB",
"wX c #DFDFEB",
"eX c #DEE1EA",
"rX c #EBEAED",
"tX c #E5E4E8",
"yX c #FCFCFE",
"uX c #F8F5F8",
"iX c #F5EDEB",
/* pixels */
"                                                                                                                                  ",
"                                                                                                                                  ",
"                                                                                                                                  ",
"                                                            ! %.K.                                                                ",
"                                                        ~.m 9 9 9 w >.                                                            ",
"                                                      K.5 w e 4 e e 4 &.                                                          ",
"                                                      m w 5 L K L 5 w 4                                                           ",
"                                                    T.2 E _.4X4X2XE.L 2 E                                                         ",
"                                                    &.2 T.yXyXyXyXuX}.r w                                                         ",
"                                                    P q 2XyXyXyXuXyXtX! q                                                         ",
"                                                    G 4 (.4X5XuXrX1X].U r                                                         ",
"                                                  uXW + ! &.&.}.R.[ $.3 e                                                         ",
"                                                  yXu.X 3 K !.R.'.K.3 & 2                                                         ",
"                                              I.k.'.t.O % % u.+X+X=.: + 3                                                         ",
"                                            !.O.k...I 0 % ) *.T T -...o K.                                                        ",
"                                            ] '.0X/.oX^.: x.8X^.-X7X~.n ]                                                         ",
"                                            o.=Xp.x.7Xo.7 0.=X XOX;Xr.r.8 [                                                       ",
"                                          =.^.;Xg X.oXg _ h ` Q.Q.` B ( ^ +Xz.t.                                                  ",
"                                          t.7X^.g B *.7 ( % B ` ^ * ( g W.8X:X_                                                   ",
"                                        -.oXoX( y.*.7 x M % X.!.' * *.> Q.9X9Xb.B r.                                              ",
"                                        c.  j.t.iX-X0 l l . k y.3 I P.> p..X.X:Xb.B                                               ",
"                                      y.  ;X..    yX$.' 8 l t.+ & !.~.: d > 0.7X8XW...                                            ",
"                                    j.    W.P.      =.-.P l H.2 L.rX_.3 * *.O.X.O.-.I.#.                                          ",
"                                  -.  qX8Xc.        u.>.$.& G w 1XyX{.H < [.K.o 0 : W E                                           ",
"                                  Y   =X/.c.        {.l J.e . J tXrX].Y.e ).Y : k 6 w e                                           ",
"                                  T X.x._ o.        {.E 4XT.@ ;.rX1XU.2XW [ r.k o 6 0 w U.                                        ",
"                                    N j.T N         >.#.1XE . U.tXG.R.<Xl z.^. XW.7 X 3 J.                                        ",
"                                      )             E _.2X2 . _.(.U.rX1XY { h.b.;XW.% U                                           ",
"                                                  }.~ 5X_.@ 9 E.U.wXyX<Xx d Z | x.y.i.                                            ",
"                                                  T.G.tX2X,.~.1XtXyXyX1XY 7 g h ) *.                                              ",
"                                                  ! (.3XeXuXyXuX5X{.].,XQ P J._.!.                                                ",
"                                                  E K K ! I.6XiX`.T.J.Q 5 R                                                       ",
"                                                  ..| h.q.a B c.1XrXtX2X,.J _.                                                    ",
"                                                0X| M.|.@Xd.a 0 M ..y.P.%.J @.}.                                                  ",
"                                                -X_ v.a.a.a.D o.Z B , > 6 + G G ;.                                                ",
"                                                '.b B.#X$Xg.F q.s.XX.XD * m ,.Q w #.                                              ",
"                                                -XA @XA.A.$X@XV p |.>XV.a ) ).  R l u.                                            ",
"                                                OXs.C.S.D.A.%Xv ; S B.%XZ > Q   +Xr K                                             ",
"                                                /.s.$XD.Z.A.N.p S 2.3.B.s.> R ;.  $.E E.                                          ",
"                                                c.v.$XD.Z.*Xm.; 9.s.a.d.w.n 3 w >.#.t J.                                          ",
"                                                +.M.$XF.S.*XM.; _ h.w.e.| _ l.! r e 4 R.                                          ",
"                                                j.q.#XS.A.#Xs.B M N _ B h )     L P w #._.                                        ",
"                                                P.b f.&X#XB.b c.] X > = = )       L.L m %.                                        ",
"                                                n g a.@Xm.S g '.`.6 = - - {           <.}                                         ",
"                                                * B D a.2.9.> k.6Xx u f = z                                                       ",
"                                                N p.D 2.d.9._ [ `.8 $ f u d ].                                                    ",
"                                                k c.h.2.D q.o.y.H.d u y y j :.                                                    ",
"                                                  n  .w.e. .T -Xy.j C c / z :.                                                    ",
"                                                    X.z h h `.    ^ z z z '                                                       ",
"                                                      M ^ k +X      i.$.-.                                                        ",
"                                                    W r k.: L -X                                                                  ",
"                                                  <.2 r U r : J.                                                                  ",
"                                                    O 3 8 & & _.                                                                  ",
"                                                    l = 8 8 < 1X                                                                  ",
"                                                    d j j s 1 +X                                                                  ",
"                                                    = $ s f 1 [.                                                                  ",
"                                                  M # u u s # z.                                                                  ",
"                                                  d i y i u h ]                                                                   ",
"                                                  / 4.4.6.1.c *.                                                                  ",
"                                                  / 5.8.8.7.u !.                                                                  ",
"                                                    = d j = ^                                                                     ",
"                                                      ~ m =.                                                                      ",
"                                                                                                                                  ",
"                                                                                                                                  ",
"                                                                                                                                  "
};
