/* XPM */
static char *d31cd35c5aa44d07d0cca6078da77dc87Sv7fwcr3DEWNXng[] = {
/* columns rows colors chars-per-pixel */
"65 65 228 2 ",
"   c None",
".  c #0A0707",
"X  c #150902",
"o  c #1C0900",
"O  c #170707",
"+  c #181309",
"@  c #0A0815",
"#  c #161415",
"$  c #1B1412",
"%  c #1B1915",
"&  c #1D1C1B",
"*  c #15151A",
"=  c #0A1117",
"-  c #260803",
";  c #390E0F",
":  c #271805",
">  c #251B19",
",  c #261A18",
"<  c #331B1B",
"1  c #341C14",
"2  c #320E0F",
"3  c #1F201B",
"4  c #342909",
"5  c #25221D",
"6  c #2B241E",
"7  c #2E261B",
"8  c #322414",
"9  c #34221A",
"0  c #392819",
"q  c #3D3415",
"w  c #261923",
"e  c #3B1A24",
"r  c #1B2121",
"t  c #232323",
"y  c #2B2422",
"u  c #2C2A25",
"i  c #2B2B2C",
"p  c #27252B",
"a  c #332B23",
"s  c #342C2D",
"d  c #3A2F2C",
"f  c #392826",
"g  c #3C3225",
"h  c #3D362D",
"j  c #35322D",
"k  c #2D2C35",
"l  c #362C34",
"z  c #333334",
"x  c #3C3235",
"c  c #3D3933",
"v  c #3B3B3B",
"b  c #37373B",
"n  c #2D3331",
"m  c #47191B",
"M  c #4A0A11",
"N  c #66171D",
"B  c #41291B",
"V  c #513E18",
"C  c #42300F",
"Z  c #4E1C23",
"A  c #46272A",
"S  c #443B24",
"D  c #4D3D2B",
"F  c #423427",
"G  c #482935",
"H  c #453B33",
"J  c #443D3C",
"K  c #483737",
"L  c #543939",
"P  c #55352F",
"I  c #673332",
"U  c #50491F",
"Y  c #6B5916",
"T  c #564929",
"R  c #595429",
"E  c #4A443A",
"W  c #55473A",
"Q  c #5E5436",
"!  c #4A422B",
"~  c #665838",
"^  c #704F36",
"/  c #76663B",
"(  c #796629",
")  c #3E3E42",
"_  c #3E3E48",
"`  c #423C45",
"'  c #593B43",
"]  c #6D3B44",
"[  c #773E42",
"{  c #3B4141",
"}  c #434245",
"|  c #4B4743",
" . c #49474C",
".. c #5B4D42",
"X. c #544A48",
"o. c #5B5547",
"O. c #564F52",
"+. c #555653",
"@. c #5D5652",
"#. c #58565B",
"$. c #4C4B57",
"%. c #644A43",
"&. c #675A48",
"*. c #715D4B",
"=. c #6B5D53",
"-. c #665B58",
";. c #79484C",
":. c #6C6445",
">. c #786648",
",. c #7D744F",
"<. c #6D6354",
"1. c #67665E",
"2. c #76695C",
"3. c #7D7355",
"4. c #7A765B",
"5. c #5C5B63",
"6. c #625E68",
"7. c #646365",
"8. c #6C6C6C",
"9. c #696768",
"0. c #7B6B65",
"q. c #7C7366",
"w. c #6C6A70",
"e. c #7B7977",
"r. c #6E6F72",
"t. c #802931",
"y. c #863943",
"u. c #99555A",
"i. c #914E50",
"p. c #87775A",
"a. c #8E7354",
"s. c #9D5762",
"d. c #8B7D6C",
"f. c #847768",
"g. c #857C74",
"h. c #8B7067",
"j. c #AE7D6E",
"k. c #968034",
"l. c #8C835E",
"z. c #99895D",
"x. c #938046",
"c. c #B5A24B",
"v. c #B6A25D",
"b. c #988668",
"n. c #8A8378",
"m. c #968877",
"M. c #958C69",
"N. c #A59867",
"B. c #A48B7A",
"V. c #B09773",
"C. c #B7A87A",
"Z. c #AFAA71",
"A. c #B09A4F",
"S. c #CBBD5A",
"D. c #C4B06B",
"F. c #DDC872",
"G. c #E7DD7B",
"H. c #E4D76F",
"J. c #F3E47D",
"K. c #777582",
"L. c #9C7F80",
"P. c #838284",
"I. c #89888C",
"U. c #928A83",
"Y. c #968B88",
"T. c #9D9488",
"R. c #8E8C95",
"E. c #978E94",
"W. c #939395",
"Q. c #9B999A",
"!. c #999796",
"~. c #8D9193",
"^. c #A69888",
"/. c #B39B8A",
"(. c #A59B92",
"). c #A58D90",
"_. c #ACA18F",
"`. c #B7A38E",
"'. c #AAA699",
"]. c #B6AB9B",
"[. c #9D95A0",
"{. c #A39EA7",
"}. c #A9A6A6",
"|. c #B6AEA5",
" X c #BDB1A6",
".X c #ADABB3",
"XX c #B6AEB3",
"oX c #B7B4B7",
"OX c #C8BC80",
"+X c #C3AE9B",
"@X c #C3B3A4",
"#X c #C5B7AD",
"$X c #C8BDB9",
"%X c #DCD58B",
"&X c #D3C386",
"*X c #E9D988",
"=X c #E5DC92",
"-X c #EAD796",
";X c #E9D289",
":X c #EDE387",
">X c #ECE19C",
",X c #C9C6BA",
"<X c #DDCAB4",
"1X c #D4CBBD",
"2X c #E4CFB0",
"3X c #BEB8C4",
"4X c #C4BCC8",
"5X c #C9C4C5",
"6X c #D7CDC3",
"7X c #CBC7D3",
"8X c #D1CFD7",
"9X c #DAD8D7",
"0X c #DFD4C6",
"qX c #EADACA",
"wX c #E7D6C5",
"eX c #FADBC2",
"rX c #F4DDC7",
"tX c #EDDFD2",
"yX c #F9E3CC",
"uX c #EEE4DB",
"iX c #DDDAE2",
"pX c #EBEAEC",
"aX c #E6E4EB",
"sX c #F2E9E7",
"dX c #EEECF2",
"fX c #F3EFFB",
"gX c #FDFBFD",
"hX c #F8F5F7",
/* pixels */
"                                                                                                                                  ",
"                                                                                                                                  ",
"                                                                                                                                  ",
"                                                                                                                                  ",
"                                                                                                                                  ",
"                                                                                                                                  ",
"                                                                                                                                  ",
"                                                                                                                                  ",
"                                                                                                                                  ",
"                                            9.} p t t i v  .} } 9.                                                                ",
"                                        P.r.i b b b z z z v i z i t P.                                                            ",
"                                      e.    b z b v b z z v v } v z t                                                             ",
"                                            ) z b ) } b b i i i p # i                                                             ",
"                                  r.  W.5X}.t } b b v b z t i p i e.                                                              ",
"                                  e.I.7..X .p ) } ) } } i * t t                                                                   ",
"                                    7.Q.i i J J z i t i & } W.                                                                    ",
"                                    r.Q.E 6 > y d s y # . I.                                                                      ",
"                                  .Xv H n.].2.&.W F > $ # 8.                                                                      ",
"                          g.q.n.    U.U.wXrX<X>.~ &.<.g + a   }.                                                                  ",
"                        H (.$X<.|.    2.#XwXyXb.~ ! S S 8 + =.2.=...<.2.=...(.                                                    ",
"                      2.=.m.*.2.W     _.2.wX`.D `.*.b.: o W 0XqX@X^.<X<X/.m.=.                                                    ",
"                      E &.%.B./.q.q.    m.m.q.g @X1X X: X /.qXrXrX2XyXB.^.].2.U.                                                  ",
"                      H 9 F W ^.0Xq.&.n.n.d. XH K #Xf.o o +X<X`.rXyX`.0 ].qX'.@.                                                  ",
"                      e.9 F %.2.(.1X,X_.b.d.F ..X d 6 X 1 B.^ V.b.&.W d.=.qX6X@.                                                  ",
"                            =.d s E #XyXeXeXV.*.X a . X 9 P i.^ - X =.uXU.q.8.% E                                                 ",
"                                  e.=.+XeXeXeXp.+ 5 % u < ; j.a.o X a 9X9Xc t % % t                                               ",
"                                      %./.<X`.E . . * 7.K 1 I ^ O . & !.}.% z b % % U.                                            ",
"                                        f.W H , . * @ }.4X=.B 9 > I.W.#.P.i y % 6 6 |                                             ",
"                                              _ @ @ k 3XgXsX5Xq.8.iXaX8.9X8.$ c #X X&.                                            ",
"                                              $.@ . #.4XdXgXgXpXpXgXaX#.9XoX> Y.tXqX@XU.                                          ",
"                                               .. J @.X.{.4XfXgXdX9XpXO.7.5X0.m.wX@X@Xf.                                          ",
"                                              | > !.sXn. .[.iXfXE.$XpX#.X.U.T.=.d.d.0...                                          ",
"                                              u 5 (.hX9X` 6.4XR.P.hXdX5.oX .x J h g a g.                                          ",
"                                            Q.t u |.gXhXr.$.5.I.pXgX8X9.3Xw.b } o.-.}.                                            ",
"                                            Q.# 3 ,XgXaX6.` .XgXhXaXK..XXXoXQ.s n.'.!.}.                                          ",
"                                              k 9.  gXP.` 3XpXfX8XK.{.8XR.9XXXt c +  .k } r.                                      ",
"                                                    dX8.!.5Xe.E.P..XfX7X5XoXv X.+.#.K.#.i i 7.                                    ",
"                                                    8X| U.1X,X].6XhXaXiXP.j E 5XQ.+.5XdX~.i p 5.~.                                ",
"                                                      1.+ T ~ 3.q.g.e.J y h 5 1.h E 8.iXI._ ) p { }.                              ",
"                                                      f.,.C.N.z.l.3.<.8 g -.> a 4.^.7 @.k } p z r n 9.                            ",
"                                                    1X:.&X>X>X=X>XN.R F ..f E X.g W 6 x h + % & t i +.                            ",
"                                                    Q N.=X*X;X*X*XY - >.m.f.8 g 8 ..+ $ h 0 a 6 c z v !.                          ",
"                                                    Q OX:XG.c.D.v.4 V b.N.>.! 3.:.&.7 > K x , > d s 5 1.                          ",
"                                                    R %XG.H.F.Y ~ o T b.M.~ ~ ~ l.b.g s x w . , < < , |                           ",
"                                                  T.p.=XG.J.*Xv.C : 0 b.p.,.3.q 4 ! $ Y.E.-.O.O 2 m 9 K                           ",
"                                                  o.C.=XG.S.c.;XZ.B D W 2.! ! <.].'.@.        f m [ %.L                           ",
"                                                  W N.%X:XS.k.( / q ^.E @.U.                  < Z u.;.L                           ",
"                                                    R N.*X*X*X&XC.>.S g.                      , I s.] %.                          ",
"                                                      T OX=X*X*X-XOXV D W                   -.L i.] A ).                          ",
"                                                      o.U OX*XF.A.D./ >.F                   ).F A 2 L                             ",
"                                                      }.0 T z.x.( -Xz.Q q.                      0.'                               ",
"                                                        m.D ~ / N.-Xp.&.                                                          ",
"                                                        @XB >.b.C./ &.                                                            ",
"                                                          W D 8 4 : d.                                                            ",
"                                                            e.% <.d.a }.                                                          ",
"                                                            = v c X.a i                                                           ",
"                                                L.A ..Y.XXE.w e x s # 7.                                                          ",
"                                                P h.m - m e e A , w # 9.                                                          ",
"                                                m u.i.t.N M ; < s k # b                                                           ",
"                                                L [ i.i.y.M ; , w p * i                                                           ",
"                                                ).X.L L L G e w w @ . u                                                           ",
"                                                    w.` ` i l l ` } +.e.                                                          ",
"                                                        Q.}.|.                                                                    ",
"                                                                                                                                  ",
"                                                                                                                                  "
};
