/* XPM */
static char *_8624f2fdaf845038237ad509b7d86a6OLs5BzNu60l4sSbn[] = {
/* columns rows colors chars-per-pixel */
"65 65 233 2 ",
"   c None",
".  c #090A0A",
"X  c #160903",
"o  c #181308",
"O  c #130C14",
"+  c #151412",
"@  c #1A1413",
"#  c #1C1B1D",
"$  c #181518",
"%  c #0E1012",
"&  c #23120C",
"*  c #231505",
"=  c #211611",
"-  c #241A15",
";  c #231C1A",
":  c #2B1A18",
">  c #341C1B",
",  c #2C1210",
"<  c #372A01",
"1  c #25211D",
"2  c #2E251C",
"3  c #31251D",
"4  c #322617",
"5  c #3C3517",
"6  c #1E1A20",
"7  c #281D22",
"8  c #381E24",
"9  c #242425",
"0  c #2C2421",
"q  c #2B2A26",
"w  c #262528",
"e  c #2B262B",
"r  c #2C2C2C",
"t  c #262827",
"y  c #322523",
"u  c #352E24",
"i  c #322D2C",
"p  c #3B2F29",
"a  c #2F3020",
"s  c #3D3326",
"d  c #34322D",
"f  c #3C342C",
"g  c #363828",
"h  c #2F2B30",
"j  c #3B2A32",
"k  c #343335",
"l  c #3B3436",
"z  c #343D36",
"x  c #3B3D35",
"c  c #373739",
"v  c #3A3A3C",
"b  c #3B343A",
"n  c #4B0B06",
"m  c #4A1818",
"M  c #55121D",
"N  c #47351A",
"B  c #43201A",
"V  c #45282B",
"C  c #453629",
"Z  c #553E29",
"A  c #4A2E32",
"S  c #433433",
"D  c #433C36",
"F  c #493C31",
"G  c #463B3B",
"H  c #553538",
"J  c #5B272E",
"K  c #70373D",
"L  c #554719",
"P  c #4A401C",
"I  c #4A442A",
"U  c #574828",
"Y  c #4B4538",
"T  c #534435",
"R  c #54493D",
"E  c #5D4D3B",
"W  c #59453A",
"Q  c #5A543B",
"!  c #575135",
"~  c #5F512C",
"^  c #67563B",
"/  c #6A5135",
"(  c #6A623A",
")  c #78642F",
"_  c #3E3E40",
"`  c #5A3F44",
"'  c #4C3A40",
"]  c #3F4346",
"[  c #424242",
"{  c #44444A",
"}  c #4A4A4B",
"|  c #4D4845",
" . c #524B4A",
".. c #564C46",
"X. c #5C5246",
"o. c #5D544E",
"O. c #595A49",
"+. c #4B4954",
"@. c #514F50",
"#. c #5D5A54",
"$. c #5D5D5E",
"%. c #575658",
"&. c #624A46",
"*. c #7A414A",
"=. c #665B4C",
"-. c #685947",
";. c #755D49",
":. c #774E53",
">. c #635E5B",
",. c #665B54",
"<. c #725357",
"1. c #6D6153",
"2. c #6A655B",
"3. c #736B5C",
"4. c #7A6956",
"5. c #766C4F",
"6. c #5B5A60",
"7. c #625F6A",
"8. c #5E6464",
"9. c #6A6666",
"0. c #736D6B",
"q. c #786D63",
"w. c #7D7164",
"e. c #7C736B",
"r. c #74726B",
"t. c #736D75",
"y. c #747475",
"u. c #787979",
"i. c #6F7174",
"p. c #81423D",
"a. c #8C7833",
"s. c #883E4D",
"d. c #934F58",
"f. c #897846",
"g. c #887759",
"h. c #987B58",
"j. c #886B4F",
"k. c #915964",
"l. c #8B7D6C",
"z. c #85796A",
"x. c #887976",
"c. c #8A6863",
"v. c #A37778",
"b. c #958235",
"n. c #9B9656",
"m. c #AA9548",
"M. c #8B826D",
"N. c #978469",
"B. c #8B8879",
"V. c #968979",
"C. c #9F9B6E",
"Z. c #A7947B",
"A. c #A28B6E",
"S. c #BAA66F",
"D. c #BAAA7A",
"F. c #BEB675",
"G. c #C4B057",
"H. c #C8B87C",
"J. c #C8B26F",
"K. c #DBC87A",
"L. c #D3CB7B",
"P. c #E9DE7C",
"I. c #E4D47B",
"U. c #7E7884",
"Y. c #828183",
"T. c #8A8988",
"R. c #938C83",
"E. c #958885",
"W. c #999187",
"Q. c #8B8A92",
"!. c #988E98",
"~. c #8E9295",
"^. c #929193",
"/. c #9B9C9C",
"(. c #9A9596",
"). c #A89887",
"_. c #A79E98",
"`. c #B7A889",
"'. c #ABA39D",
"]. c #AEA698",
"[. c #B4AA98",
"{. c #9D9AA3",
"}. c #A79BA4",
"|. c #B09BA2",
" X c #A3A1A3",
".X c #ADA5A2",
"XX c #A9ABAC",
"oX c #A7A4AB",
"OX c #BAAEA4",
"+X c #B2AAA8",
"@X c #BEB4AA",
"#X c #AFACB3",
"$X c #B5B4BA",
"%X c #B8B5B6",
"&X c #BEAEB8",
"*X c #C4AF9A",
"=X c #C9B39F",
"-X c #CBB68C",
";X c #CABCAC",
":X c #D4C889",
">X c #E3D889",
",X c #F2DA9D",
"<X c #EFDC8B",
"1X c #F6E39A",
"2X c #EDE38D",
"3X c #CCC6B9",
"4X c #D6C8B6",
"5X c #D3C3AB",
"6X c #E8CFB9",
"7X c #E3D0BC",
"8X c #F0D4BC",
"9X c #BABAC2",
"0X c #BFC0C5",
"qX c #C8C5C7",
"wX c #D5CDC1",
"eX c #D4C8D2",
"rX c #D8D7D9",
"tX c #D6D2D0",
"yX c #E9DAC4",
"uX c #E6D8D5",
"iX c #F1D8C2",
"pX c #F0E0C6",
"aX c #F6E6D8",
"sX c #EBE1D0",
"dX c #DCDAE1",
"fX c #E0D5E3",
"gX c #DEE2E5",
"hX c #ECEAEE",
"jX c #E6E3E9",
"kX c #FCEDF6",
"lX c #FCFCFF",
"zX c #F8F8FE",
"xX c #F2F1F2",
/* pixels */
"                                                                                                                                  ",
"                                                                                                                                  ",
"                                                                                                                                  ",
"                                                                                                                                  ",
"                                                                                                                                  ",
"                                                                                                                                  ",
"                                                                                                                                  ",
"                                                                                                                                  ",
"                                                                                                                                  ",
"                                                                        #XXX                                                      ",
"                                                            Y.} v _ c h t t k } 9.XX                                              ",
"                                                          $.k k k c c c c c k k $.^.^.                                            ",
"                                                          # r k v v c k c v v k u.hXqXQ.                                          ",
"                                                          T.r # r r k c c c v c y.dX%XqXQ.                                        ",
"                                                              $.# $ w v [ [ v v k #XT./.Y.                                        ",
"                                                                y.[ w r k k l v k d y.Y. X                                        ",
"                                                                    t # 7 y p y = d 9.u.                                          ",
"                                                                    9 # - C W -.R.W.@.z oX                                        ",
"                                                              3X+X0.@ f =.-.;.N.yXyX+XT.    E.E.x.                                ",
"                                                    o.q.z.z.=.q.V.Y - u I E ;.Z.pX5Xx.    _.2.OXx.0.                              ",
"                                                  e.V.).;X4X*X7XyX).4 * V.V.).N *X).W.    R z.w.e. .^.                            ",
"                                                %X,.@XOX4.7XaXiX6X8XN * V.wXl.E Z.l.    1.).).w.D #.9.                            ",
"                                                (.(.aX).T 4.*X=Xh.-XZ X D ,.& E 4.;.4.N.[.4Xl.C 1 q  X                            ",
"                                                G 9.'.w.;X-.* Z j./ C X @ ; - ,.).5X7XyXl.s 3 o.R..X                              ",
"                                            /.d @ 1 d '.uXs X , A./ & 7 . w @ R.pXpXyXM.1._.                                      ",
"                                            #.. 1 G 0 W..X0 X & ;.m > 9.$ % + 3.;X4X1.e.                                          ",
"                                            D i ; 1 i 0.y.^.y.; V &.|.%X% % . u X.3.+X                                            ",
"                                            x.wXR.1 Y rXy.rXeXt.|.uXkXdX[ . + 0.                                                  ",
"                                          B.3XuXtXS T.rX$.jXzXzXlXkXhX$X%.. . u.                                                  ",
"                                          w.].[._.e.@X .@.hX9XjXkXeX{.+.~.8.+ Y.                                                  ",
"                                          ,.R 1.=.X.e.e.>.jX0XQ.dXoX+.Q.xX~.1 #.                                                  ",
"                                            X.3 C 3 G +X9.jXzX{.t.U.{ dXlX/.t x                                                   ",
"                                              /.>. .+X&X!.(.zXzX$X6.{ gXlXXX# e                                                   ",
"                                        9.+.{ v r t.eX}.fX!.(.hXzXqX%.y.    { k                                                   ",
"                                      k r @.o.D #.d  XqX$XhX/.(.}.#XoX%.                                                          ",
"                                  $.k r B.sX@X=.3Xr.9 i.rXhXxXqX.XqX_.|                                                           ",
"                                i.w r [ 2.3X! 3.O.g z z q 2.-.^ ^ Q 5 Q                                                           ",
"                              { w 9 e i g s ! B.Y q x x u 5.N.D.D.:XS.(                                                           ",
"                              [ r r 9 + d 2 - Y u ..f 1.U N S.,X1X<X2Xn.M.                                                        ",
"                            9.i c r t l l ; 3 F T C -.V.h.< L >XJ.K.P.L.!                                                         ",
"                            l 7 e $ O h i = W l.g.;./ N.N.U < f.a.I.P.L.( 3X                                                      ",
"                            j 8 8 , j b 9.>.C ;.N / j.g.N.N o L J.<XP.>X5.].                                                      ",
"                            ` ` m m x.      |   l.E T 1.Q 5 P D.K.G.I.>X-X3.                                                      ",
"                            G <.p.n                   O.I g.N f.b.m.I.>XC.O.                                                      ",
"                            G :.d.n c.                  B.I h.J.I.2X2XF.!                                                         ",
"                              V K *.H                 O.Y ^ -X,X1X>X:X~ ].                                                        ",
"                              S 8 H                   3.^ g.S.m.H.H.~ Q                                                           ",
"                                                        Q C.:X) f.~ F OX                                                          ",
"                                                          -.`.`.g.E z.                                                            ",
"                                                          w.4 T F p R.                                                            ",
"                                                          R 3.s Y _.                                                              ",
"                                                        D 2 X.F 2 q.                                                              ",
"                                                        >.; 2 f o &.  v.:.H E.                                                    ",
"                                                        r.@ 0 - p > m M M k.`                                                     ",
"                                                        [ + i y 2 & J s.d.d.A                                                     ",
"                                                        b O 6 @ = , J K *.*.<.                                                    ",
"                                                        } # 6 h q p S A H x.                                                      ",
"                                                              Y.u.9.9.x.                                                          ",
"                                                                                                                                  ",
"                                                                                                                                  ",
"                                                                                                                                  ",
"                                                                                                                                  ",
"                                                                                                                                  ",
"                                                                                                                                  ",
"                                                                                                                                  "
};
