/* XPM */
static char *_a10bef4ceb34700ef2f1ca2efbdc0c1JWuCtn9XR0BJAlNR[] = {
/* columns rows colors chars-per-pixel */
"65 65 228 2 ",
"   c None",
".  c #050402",
"X  c #0A0302",
"o  c #0C0B0D",
"O  c #070909",
"+  c #140D0B",
"@  c #150906",
"#  c #1B130D",
"$  c #1A1404",
"%  c #0E0C15",
"&  c #120D12",
"*  c #0A1114",
"=  c #141414",
"-  c #1B1513",
";  c #15141D",
":  c #1D1B1C",
">  c #181919",
",  c #0E100D",
"<  c #27180A",
"1  c #241C15",
"2  c #221D1B",
"3  c #291A18",
"4  c #391B17",
"5  c #2C2208",
"6  c #33260C",
"7  c #21211C",
"8  c #2B241C",
"9  c #2C2515",
"0  c #382918",
"q  c #36321D",
"w  c #1C1D21",
"e  c #241B24",
"r  c #341E21",
"t  c #1D2227",
"y  c #252525",
"u  c #2B2624",
"i  c #23232A",
"p  c #262A2C",
"a  c #2B2B2C",
"s  c #2A2928",
"d  c #352323",
"f  c #322923",
"g  c #312D2D",
"h  c #3B2F29",
"j  c #3C2A26",
"k  c #343224",
"l  c #393325",
"z  c #35312D",
"x  c #3B332B",
"c  c #3D3A2B",
"v  c #2C2D33",
"b  c #262932",
"n  c #362D34",
"m  c #2E3334",
"M  c #2C3639",
"N  c #333333",
"B  c #3B3534",
"V  c #343935",
"C  c #3A3B37",
"Z  c #35363A",
"A  c #343A3A",
"S  c #3B3C3C",
"D  c #39343B",
"F  c #2D322E",
"G  c #4A1B15",
"H  c #453209",
"J  c #53381D",
"K  c #442516",
"L  c #432A28",
"P  c #47382B",
"I  c #56372D",
"U  c #443F3C",
"Y  c #483935",
"T  c #574517",
"R  c #624C1B",
"E  c #574A2C",
"W  c #584827",
"Q  c #4B4333",
"!  c #42423E",
"~  c #49473A",
"^  c #534A3D",
"/  c #5B463A",
"(  c #514D35",
")  c #634928",
"_  c #69532A",
"`  c #69563A",
"'  c #6C5537",
"]  c #7C6635",
"[  c #716136",
"{  c #3B3C42",
"}  c #363B42",
"|  c #2D3741",
" . c #413E41",
".. c #523D44",
"X. c #3E4446",
"o. c #3E4553",
"O. c #454443",
"+. c #43444A",
"@. c #464A4B",
"#. c #4B4B4C",
"$. c #484844",
"%. c #514D4D",
"&. c #574745",
"*. c #5B5B4C",
"=. c #5B554C",
"-. c #4A4A50",
";. c #464B56",
":. c #4E5256",
">. c #53595B",
",. c #585557",
"<. c #5A4E5A",
"1. c #664A47",
"2. c #68584C",
"3. c #6D5D53",
"4. c #6A5E5A",
"5. c #685556",
"6. c #755A58",
"7. c #75574D",
"8. c #67614D",
"9. c #7D6544",
"0. c #73664A",
"q. c #66625C",
"w. c #6C6657",
"e. c #766759",
"r. c #79715F",
"t. c #5A5A64",
"y. c #4A5364",
"u. c #625D63",
"i. c #5C6569",
"p. c #5C6671",
"a. c #646466",
"s. c #666869",
"d. c #746863",
"f. c #6E716A",
"g. c #797569",
"h. c #686B77",
"j. c #6A7477",
"k. c #78777B",
"l. c #816C3D",
"z. c #8A7546",
"x. c #896C5A",
"c. c #826A58",
"v. c #897853",
"b. c #957B54",
"n. c #907651",
"m. c #866E4C",
"M. c #836E61",
"N. c #857766",
"B. c #967D6B",
"V. c #857B73",
"C. c #847C79",
"Z. c #907E72",
"A. c #A07F6C",
"S. c #9C8559",
"D. c #A3875E",
"F. c #AD995C",
"G. c #8D8267",
"H. c #99876B",
"J. c #8A8479",
"K. c #9A8876",
"L. c #A38A63",
"P. c #A58D7A",
"I. c #AC9F72",
"U. c #B0956D",
"Y. c #B2A36F",
"T. c #687985",
"R. c #767984",
"E. c #787D90",
"W. c #867E8D",
"Q. c #7D8986",
"!. c #8A8985",
"~. c #878589",
"^. c #90868D",
"/. c #8A9499",
"(. c #9A969A",
"). c #8C8E90",
"_. c #A48E85",
"`. c #AD9787",
"'. c #B79C89",
"]. c #AC9B92",
"[. c #AA9B9E",
"{. c #B09895",
"}. c #ADA188",
"|. c #B8A697",
" X c #BBAC91",
".X c #9C9CA5",
"XX c #A39EA8",
"oX c #A5A5AA",
"OX c #BAB6AC",
"+X c #B4ADB3",
"@X c #B5B4B6",
"#X c #ACB1B1",
"$X c #C7A892",
"%X c #C8B59E",
"&X c #D1B78E",
"*X c #CABBAD",
"=X c #C6B6BD",
"-X c #E1BDAD",
";X c #E4CD8E",
":X c #DCC6B4",
">X c #ECD9A5",
",X c #E1C9B6",
"<X c #E1D0B6",
"1X c #BFBFC9",
"2X c #C5BEC8",
"3X c #D3BFCB",
"4X c #A3C4C9",
"5X c #C6C7CC",
"6X c #D5CECB",
"7X c #D6C7D8",
"8X c #D1D2D6",
"9X c #CCD4D7",
"0X c #E5D7C6",
"qX c #F6DBCA",
"wX c #EAD4D1",
"eX c #DDE0D9",
"rX c #DEDDE3",
"tX c #E7DAEA",
"yX c #DFE3E4",
"uX c #E7E6E8",
"iX c #F8F1EC",
"pX c #F4F5F5",
"aX c #F5FBF5",
"sX c #FDF6FD",
"dX c #F5FDFC",
"fX c #FDFCFD",
"gX c #FBF7F5",
"hX c #EDF0F2",
/* pixels */
"                                                                                                                                  ",
"                                                            >.} A i.p.                                                            ",
"                                                        s.V m p S M M s.                                                          ",
"                                                        > N C F X.@.X.p %.                                                        ",
"                                                      S 7 S a ! ! S i Z U                                                         ",
"                                                    N , N O.V ! S y { +.u =.                                                      ",
"                                                    N > S N C $.z g +.{ z 1 w.r.                                                  ",
"                                                    { w p S V  .u  .{ v e 8 K.K.=.                                                ",
"                                                  :.t i = v D  .g S v ; a f :XqXV.*.                                              ",
"                                                    { v % i m -.n : % ; p z ,XqX`.g.                                              ",
"                                                    k.a w ; i a : O o v = q.0XqXH.r.                                              ",
"                                              d.d.!.^.g & + = O = - a = A %.e.'.%Xw.                                              ",
"                                            4.V.OX3.h # X # + 2 8 1 7 o !.OXw./   J.s.                                            ",
"                                          d.Y *X].|.3.3 < 3 # # # $ $ $ g.    r.}.}.f.                                            ",
"                                          ^ Z.|.H. XP.` 0 0 P e.P Q q l 1 q.f.*.G.0Xk.T.                                          ",
"                                        4.2.|.'.,XB.'.'.0 c.P P 9 9 $ < 6.].w.9 E K.oXp.                                          ",
"                                        d.H.P.%X'.) $X$X< ].|.x < @ 4 L I -X:XG.%XB.].a.4X                                        ",
"                                    S 4.3.`.x.x.K J A.x.4 ].gX6XV.2.5.6.G P.'.<X:X:X|.C.#X                                        ",
"                                  | i 2 d Y L M._.P L 1.3 [.sXsXgX6XtX{.4 c.H.B.B.'.{.,./.                                        ",
"                                  t v O.n 1 Y wXiX_.d r Y 2XsXsXfXgXsX=X4 4 L 0 P / Y %.                                          ",
"                                  * v Z n %.- (.sX+X3 r ^.uX2X8XpXfXsX3X3 ~                                                       ",
"                                O.O 7 : B n a #XsXoXe <.tXXXoXuXdXuXsX7XD ^.                                                      ",
"                                *.~ V.&.8 : ~.  uX5X+.(.~.a.rXfXyX(.tX7Xt./.                                                      ",
"                                e.|.|.*Xd.z       oX+.R.u.5XpXdXdXoXW.2Xo.                                                        ",
"                              5.G.0Xc.`.V.J.      9XN #.@XpXfXaXdXhXk.h.p.                                                        ",
"                              =.*X`.I 0 / g.      5X{ oXsXuXpXdXdXdX5X} T.                                                        ",
"                              B M.e.7./ 5.d.      ).h.XXk.(.pXaXaXfXfX~.R.                                                        ",
"                              U j I 1.1.L 5.      h.R..X+XpXfXfXfXuX@X1Xo.                                                        ",
"                                Y 0 L &...        :.#XpXsXfXfXfXsXuX^.t.y.                                                        ",
"                                                  >.5XfXsXsXfXaXfXgXuXR.;.                                                        ",
"                                                Q.k.hXuX=X2X8XuXhXaXfXuXh.E.                                                      ",
"                                                a.~.+X,.f l c Q 8.g.OXeX/.p.                                                      ",
"                                                m Z e @ q v.v.l.[ R W ` !.:.                                                      ",
"                                                > . n j ` Y.&X;X;XF.Y.H.c 7                                                       ",
"                                              j.Z & D j H.>X>XF.l.z.I. X*.f.                                                      ",
"                                            >.;.-.& d < _ S.l.T U.I.E 5 k S                                                       ",
"                                            :.p b +.h W ] H < H G.6 0 9 l c f.                                                    ",
"                                          s.#.{ R. .0 9.S.S.E < $ < l l P w.k                                                     ",
"                                      X.>.; p k.t.: 5 n.D.L.0.X . k x Y 9 ^ Q q.                                                  ",
"                                    X.M b v a @.{ = E z.z.L.e.+ . s u f 9 Q 8.c                                                   ",
"                                      i.;.} p v +.2 ` z.R ) P X O A Z B f P N.0 =.                                                ",
"                                          h.i./..XO.0.] z.9.3.X * b m s 8 Q g.l                                                   ",
"                                                  =.v._ _ H.e.1 o +.-.#.U x ^ w.                                                  ",
"                                                  g.[ b.) [ N.1 = { S ! $.# !                                                     ",
"                                                J.q W L.n.) ) 6 - a C C C 7 ).                                                    ",
"                                              Q.~ 0.' D.L.b.m.6 1 $.! C V y                                                       ",
"                                              Q.~ }.9.D.b.b.z.J j g $.$.! @.                                                      ",
"                                                w.G.c.) ' 9.n.E x s 7 V >                                                         ",
"                                                  J.2.2.N.e./ 9  .s.@.m >.                                                        ",
"                                                    V.1 x < f u {                                                                 ",
"                                                    ! @ @ h f u :.                                                                ",
"                                                  q.u # # 8 x z +.                                                                ",
"                                                  N 2 - + f u 2 p                                                                 ",
"                                                    > - u B N S A j.                                                              ",
"                                                    y = #.#.$.S Z i.                                                              ",
"                                                    : = y N N N p >.                                                              ",
"                                                      Z N p p C >.                                                                ",
"                                                        S @.#.s.                                                                  ",
"                                                                                                                                  ",
"                                                                                                                                  ",
"                                                                                                                                  ",
"                                                                                                                                  ",
"                                                                                                                                  ",
"                                                                                                                                  ",
"                                                                                                                                  "
};
