/* XPM */
static char *_d40ff56c1454f8bf65837adb3ad2381DYnZrZn9Y6JDh9GI[] = {
/* columns rows colors chars-per-pixel */
"65 65 145 2 ",
"   c None",
".  c #EEA61E",
"X  c #EFAC1F",
"o  c #F3AD1C",
"O  c #F3B414",
"+  c #FDB716",
"@  c #F1B813",
"#  c #FFB916",
"$  c #F6B51A",
"%  c #FDB51D",
"&  c #F6BA1D",
"*  c #FDB91D",
"=  c #F6B620",
"-  c #FEB624",
";  c #F6BC24",
":  c #FDB923",
">  c #FEB62B",
",  c #F6BC2A",
"<  c #FDB92A",
"1  c #FEB531",
"2  c #F7BE33",
"3  c #FDBB34",
"4  c #F8BE39",
"5  c #FDC41B",
"6  c #F5D61C",
"7  c #FFD21D",
"8  c #F8DA1A",
"9  c #FEC224",
"0  c #FFCC24",
"q  c #FEC32C",
"w  c #FFCB2C",
"e  c #EFD42F",
"r  c #F4D423",
"t  c #FED324",
"y  c #F6D924",
"u  c #FBDB23",
"i  c #F6D52D",
"p  c #FDD32C",
"a  c #F4DA2D",
"s  c #FED82C",
"d  c #FDC434",
"f  c #FECD33",
"g  c #FCC339",
"h  c #FECB3C",
"j  c #EED736",
"k  c #EFDA33",
"l  c #EFD43C",
"z  c #EEDA3D",
"x  c #F4D634",
"c  c #FED332",
"v  c #F4D933",
"b  c #FCD933",
"n  c #F1D53C",
"m  c #FED43B",
"M  c #F2DA3B",
"N  c #FDDA3B",
"B  c #FEE23A",
"V  c #EED744",
"C  c #EFDA41",
"Z  c #EFD74A",
"A  c #EEDA4C",
"S  c #F1D644",
"D  c #FFD443",
"F  c #F3DC46",
"G  c #FFDD45",
"H  c #F2DB4C",
"J  c #FEDD4C",
"K  c #FFCE52",
"L  c #EAD750",
"P  c #EEDB53",
"I  c #EADD5F",
"U  c #FFD352",
"Y  c #F1DC53",
"T  c #F0DC5A",
"R  c #FFDD5A",
"E  c #F5E146",
"W  c #FEE244",
"Q  c #F6E24B",
"!  c #FEE24C",
"~  c #FFE84D",
"^  c #FFE353",
"/  c #FEE851",
"(  c #F6E35C",
")  c #FEE35A",
"_  c #F8EB5F",
"`  c #ECDC62",
"'  c #ECD66E",
"]  c #FFDE64",
"[  c #F1D56B",
"{  c #F1DC6A",
"}  c #ECD772",
"|  c #EEDC75",
" . c #EDD679",
".. c #ECDA7C",
"X. c #F0DA7D",
"o. c #FEE462",
"O. c #F6E861",
"+. c #FEEA65",
"@. c #F5E76C",
"#. c #FEE669",
"$. c #FDE969",
"%. c #EDE078",
"&. c #F5E473",
"*. c #F4EB76",
"=. c #FBEA72",
"-. c #F4E27C",
";. c #F9E57B",
":. c #F1E97E",
">. c #F0D681",
",. c #F1DC8F",
"<. c #EFE88E",
"1. c #F6E480",
"2. c #FAEA81",
"3. c #F5E48A",
"4. c #F8E48D",
"5. c #F2E889",
"6. c #F9E88E",
"7. c #F8E297",
"8. c #FBED91",
"9. c #F6E29B",
"0. c #F7E59F",
"q. c #FDED9C",
"w. c #FCF29D",
"e. c #FFF89E",
"r. c #F6E9A0",
"t. c #F7EEA3",
"y. c #FEE9A3",
"u. c #FDE8A8",
"i. c #FDEEAD",
"p. c #FCF8A1",
"a. c #FDEEB1",
"s. c #FFF6B3",
"d. c #FFF1B6",
"f. c #FFF2BB",
"g. c #FFF5B8",
"h. c #FFF1C4",
"j. c #FCF6C4",
"k. c #FFFCC0",
"l. c #FFFFC8",
"z. c #FFFDD2",
"x. c #FFFFD5",
"c. c #FFFCDB",
"v. c #FFFFDD",
"b. c #FFFFE3",
"n. c #FFFDE7",
/* pixels */
"                                                                                                                                  ",
"                                                                                                                                  ",
"                                                                                                                                  ",
"                                                                                                                                  ",
"                                                                                                                                  ",
"                                                                                                                                  ",
"                                                                                                                                  ",
"                                                                                                                                  ",
"                                                                                                                                  ",
"                                                                                                                                  ",
"                                                                                                                                  ",
"                                                                                                                                  ",
"                                                                                                                                  ",
"                                                                                                                                  ",
"                                                                                                                                  ",
"                                                                                                                                  ",
"                                                                                                                                  ",
"                                                      c.h.u.4.1.-.3.y.d.                                                          ",
"                                                  k.q.-.` A z k M z V A Y =.e.                                                    ",
"                                                r.2.o.F x r 6 8 6 r y y a M P %.g.b.                                              ",
"                                            a.6.=.^ v r t p t t p p t t t i v F =.w.x.                                            ",
"                                          i.-.#.G b t t w 0 # O : : 9 0 c c b B E ` t.v.                                          ",
"                                          -.) W p t 0 & o o % - > - + + : d D ~ N A *.s.n.                                        ",
"                                        3.#.~ p t 5 O o > 1 - % > > % * - < g D N / $.5.j.                                        ",
"                                      0.=.W p p @ $ % - > > % % - - % + * - 3 4 R o.+.&.<.l.                                      ",
"                                      ;.^ b t 5 $ = - > > > - % > - - * * - < 2 U ] o.$.*.p.                                      ",
"                                    8.( b t 0 O = - - - > > > > > > > > > < : ; g U o.+.O.:.z.                                    ",
"                                    &.M t t & o > > - - - - > > > < < > 1 > & & , h ) ) Q ` f.                                    ",
"                                    T e p w X 1 > > - - * : - - * * * : > > * & : , J G M L 9.                                    ",
"                                  7.H r p w . 3 > - - - * * - - * * * : > > : * : = m b i V >.                                    ",
"                                  X.M 8 t 9 o < - : - < - : - - - - - > 1 1 - - - = w c p l [                                     ",
"                                  } v u 0 & - - * * > > - - - - - - > > 1 > - % - - : c s n [                                     ",
"                                  | j u p : < - : - > > : * - - - - - < 1 > * + % : 9 c s n {                                     ",
"                                  ..j y 0 : - < - - > > * * - - - % - - > < * # * * w c p n '                                     ",
"                                  ,.M 8 7 0 $ < - - > - # # - > - - - - > > - : - = h c b S  .                                    ",
"                                    C 8 t 0 $ - - - > < * * > > > > - - > > - - - : m f x Z                                       ",
"                                    A y t w : = * : > 1 > > 1 1 > > - - > > - - - q c p M T                                       ",
"                                    { j p w f : : : < > 1 1 1 > > - : - 1 > - - : f c b E @.                                      ",
"                                      P x s N f ; ; ; & : > > - * * : - > > < < w c m ! O.                                        ",
"                                      | F B W m 2 , ; & & : - - * * : - > < < q b c J $.2.                                        ",
"                                        @.E N G R K g ; & & - - % : - - > < w b m ^ #.;.                                          ",
"                                          I H ^ #.] U h ; & : < - - % - d h c b ^ o.;.                                            ",
"                                              $.#.#.o.) G m w 9 9 w f f p p N ! o.;.                                              ",
"                                                =.+.+.^ G b c c w p c c p b ! o.                                                  ",
"                                                    _ / W b i p b b b x M H                                                       ",
"                                                        L Z S n l l S Y                                                           ",
"                                                                                                                                  ",
"                                                                                                                                  ",
"                                                                                                                                  ",
"                                                                                                                                  ",
"                                                                                                                                  ",
"                                                                                                                                  ",
"                                                                                                                                  ",
"                                                                                                                                  ",
"                                                                                                                                  ",
"                                                                                                                                  ",
"                                                                                                                                  ",
"                                                                                                                                  ",
"                                                                                                                                  ",
"                                                                                                                                  ",
"                                                                                                                                  ",
"                                                                                                                                  ",
"                                                                                                                                  ",
"                                                                                                                                  ",
"                                                                                                                                  "
};
