/* XPM */
static char *result[] = {
/* columns rows colors chars-per-pixel */
"67 67 4 1 ",
"  c #47584A",
". c #445446",
"X c #3C4A3E",
"o c #4C5D4F",
/* pixels */
"ooo            XX          o   .  oooo           XX              ..",
"          o    XX  o              o   o          XX  o             ",
".. ooo         XX.  ....   o      ..  oo  .   o  XX   ...          ",
"..             XX   .. .     oo    .             XX   .. .   o o   ",
"..   o .   o   XX   . o.     oo    .   o .       XX   X  .     o  .",
"      ...  .   XX   . ...              o .   .   XX     ..         ",
"           .   XX . ..        o             ... .XX o           o  ",
"               XX o  .      ..                   XX            .  .",
"          o    XX o         .               o    XXo    o     ..   ",
".     o        XX                       o   o    XX     o.       . ",
"           oo  XX  .                  ..   o oo  XX.       .  .    ",
"     .         XX         ..   o     o..         XX    .    ..     ",
"  ooo.. .      XX......       o     ooo..    .   XX .....   .    o ",
"    oo. o      XX..... .    o o o     o . o o   .XX.....      o o  ",
" .            .XX.    . .    o    ..            .XX...    . .   o  ",
".............XXXXXX............................XXXXXX..............",
"XXXXXXXXXXXXXXXXXXXXXXXXXXXXXXXXXXXXXXXXXXXXXXXXXXXXXXXXXXXXXXXXXXX",
"XXXXXXXXXXXXXXXXXXXXXXXXXXXXXXXXXXXXXXXXXXXXXXXXXXXXXXXXXXXXXXXXXXX",
"             XXXXXX  o o o o o  o o o o o o o  XXXXXX     .  .     ",
"oooooooooooooo.XX oooooooooooooooooooooooooooooo.XX.ooooooooooooooo",
"     .       ooXXoo          . o o             ooXXoo .            ",
"   o   .   o  oXXo o . oo        oo  o       o . X.    . oo o      ",
"    . ..       XX oo     oooooo     .o..       . XX o       ooooo  ",
" o    o   oo   XX   ...           oo   oo    o . XX    .   o       ",
" o  o     o .  XX   ...   .       o    o   oo . .XX    ... .       ",
".     o   o..  XX  o ..          .         oo. o.XX    ..          ",
"     o      oo XX                . .           o XX   o            ",
"     oo      o X.     o                o    o   .XX                ",
".    o         XX               .          o   o XX              . ",
".     o..      XX    o            .    oo...   o XX     o          ",
".    oo.X..    XX                      oo...     XX              . ",
".     ....     XX           o  .         ....  o.XX           o  . ",
"   oo   .      XXo  o . .    o...    oo   ..     XX   o .    o o ..",
"  oooo         XX      ..      ... oooo         .XX      ...   o ..",
"ooo            XX  o           .  ooo            XX              ..",
" o o      o o oXX  o       o          o          XX  o       o     ",
".   oo         XX o . .           ..  oo        .XX  o  ..   o   . ",
"               XX   .  .    ooo    .             XX  ..  .     oo .",
"     o .       XX o . o. o   oo    .   o..  o    XX   . o.     oo..",
".     ..   .   XX o . ..               o .   .   XX o . ..       . ",
"           .   XX             o    .        ...  XX             o .",
"          .    XXo          ..                   XX o         ..o .",
"    .     o    XX o                         o    XX     o        . ",
". .    o  o    XX            .   . .   o  o      XX    o       .   ",
"    .      o   XX o                  . .    ooo  XX  .  o          ",
"     .         XX    ..   .    o      .. o       XX         .      ",
"  oo           XX .....        o    ooo .  o     XX .....          ",
"   oo          XX  .X.       oo       o         .XX.....        o  ",
"          o   .XX..            o            o   .XX.. ..    .      ",
"..........X...XXXXX............................XXXXX...............",
"XX.X.X.X.XXXXXXXXXXXXXXXXXXXXXXXXXXXX.XXXXXXXXXXXXXXXXXXXXXXXXXXXXX",
"XXXXXXXXXXXXXXXXXXXXXXXXXXXXXXXXXXXXXXXXXXXXXXXXXXXXXXXXXXXXXXXXXXX",
"ooooo ooo    XXXXXXo ooo o oooooooooo o oo o   .XXXXX ooo o ooooo o",
"oooooooooooooo.XX.oooooooooooooooooooooooooooooo.XX ooooooooooooooo",
"   oo       . oXXo .   .           .            oXXo . .      ..   ",
"o  o   .   o  oXXo o.. o oo      oo  o  ..   o . XX  o .  o        ",
"             o XX oo.. o oooooo      o. ..       XX  o   o  ooooo  ",
" o    o   o    XX   .    o       o o .  o  oo    XX    ..  o       ",
"ooo ooo   o .  XX   ...         .  o   o   oo .  XX    ..   ..     ",
".         o..o X.    ..  .        .       .oo..o XX    ..          ",
"..        o oo.XX   o              .          oo XX   o            ",
"     o  o    o.X.                     oo   o o   XX                ",
"      o .    o XX    .          .  .         o o XX    o         . ",
"     oo..   .o XX                      oo..    o XX   o            ",
"     o ...     XXo                     oo...     XX    oo        . ",
".     ....     XX   ...    o            ....   o.XX     .          ",
"   oo    .     XX   o . .    o...     o  ...   o XX     .... .  .. "
};
