/* XPM */
static char *fa4512c1895f4cc7df2fbae54f1a065fbIQeGIS2nTaTtJ21[] = {
/* columns rows colors chars-per-pixel */
"65 65 183 2 ",
"   c #151C2C",
".  c #1B212F",
"X  c #1E2332",
"o  c #1F2638",
"O  c #222635",
"+  c #232837",
"@  c #282A37",
"#  c #242739",
"$  c #252B3B",
"%  c #292D3D",
"&  c #2D303F",
"*  c #31303E",
"=  c #272E40",
"-  c #2A2E41",
";  c #2C3243",
":  c #2E3448",
">  c #313545",
",  c #333947",
"<  c #313649",
"1  c #353B4C",
"2  c #393E4D",
"3  c #363D50",
"4  c #3A3F51",
"5  c #3B404F",
"6  c #3D4354",
"7  c #3F4658",
"8  c #414555",
"9  c #414659",
"0  c #454B5C",
"q  c #494E5D",
"w  c #49515E",
"e  c #474F62",
"r  c #494F61",
"t  c #4C5364",
"y  c #4F5669",
"u  c #515767",
"i  c #555867",
"p  c #525769",
"a  c #545A6B",
"s  c #595E6E",
"d  c #575E70",
"f  c #595F72",
"g  c #5C606E",
"h  c #576071",
"j  c #5C6273",
"k  c #5F6679",
"l  c #616776",
"z  c #616679",
"x  c #646B7C",
"c  c #696E7E",
"v  c #6D717F",
"b  c #676E81",
"n  c #696E81",
"m  c #677081",
"M  c #6C7383",
"N  c #6E7689",
"B  c #717686",
"V  c #747987",
"C  c #707689",
"Z  c #747A8B",
"A  c #787E8D",
"S  c #777E90",
"D  c #797E91",
"F  c #7A808E",
"G  c #778091",
"H  c #7C8293",
"J  c #7F8598",
"K  c #818696",
"L  c #828996",
"P  c #818799",
"I  c #858B9C",
"U  c #898F9E",
"Y  c #8A909E",
"T  c #868EA1",
"R  c #898EA1",
"E  c #8791A3",
"W  c #8C93A4",
"Q  c #8F98A7",
"!  c #8E96A8",
"~  c #8F98A9",
"^  c #9196A6",
"/  c #9299A6",
"(  c #9097A9",
")  c #949BAC",
"_  c #999FAE",
"`  c #969DB1",
"'  c #989FB2",
"]  c #9AA0AE",
"[  c #96A1B4",
"{  c #9CA2B4",
"}  c #9EA6B9",
"|  c #9FA8B9",
" . c #A1A6B6",
".. c #A2A9B6",
"X. c #A0A6BA",
"o. c #A4ABBC",
"O. c #A9AEBE",
"+. c #A9B0BE",
"@. c #A7AEC0",
"#. c #A8AEC1",
"$. c #A6B0C2",
"%. c #ACB3C4",
"&. c #AFB8C7",
"*. c #AEB6C9",
"=. c #AFB8CA",
"-. c #B1B6C6",
";. c #B3B9C6",
":. c #B1B6C9",
">. c #B4BBCC",
",. c #B9BECE",
"<. c #B7BED0",
"1. c #B9BFD1",
"2. c #B7C0CF",
"3. c #BAC1CE",
"4. c #B7C0D1",
"5. c #B9C0D2",
"6. c #BBC0D3",
"7. c #BAC1D3",
"8. c #B9C2D3",
"9. c #BBC2D2",
"0. c #BAC1D0",
"q. c #BDC3D1",
"w. c #BCC3D3",
"e. c #BFC5D3",
"r. c #BBC3D4",
"t. c #BCC3D5",
"y. c #BDC4D4",
"u. c #BEC5D5",
"i. c #BFC5D5",
"p. c #BDC4D6",
"a. c #BFC6D6",
"s. c #BEC5D7",
"d. c #BCC3D3",
"f. c #BFC6D8",
"g. c #BFC6D8",
"h. c #BFC8D9",
"j. c #BFC8D9",
"k. c #C1C4D3",
"l. c #C0C7D7",
"z. c #C1C7D5",
"x. c #C1C6D6",
"c. c #C3C9D7",
"v. c #C5C8D7",
"b. c #C2C9D6",
"n. c #C0C7D9",
"m. c #C1C6D9",
"M. c #C1C8D8",
"N. c #C2C8D8",
"B. c #C3CADA",
"V. c #C1C8DA",
"C. c #C5CBDA",
"Z. c #C6CEDB",
"A. c #C3CBDC",
"S. c #C6CBDE",
"D. c #C5CCDC",
"F. c #C7CDDD",
"G. c #C4CDDE",
"H. c #C7CDDF",
"J. c #C7CEDE",
"K. c #C4CBDB",
"L. c #CBCFDB",
"P. c #C9CFDD",
"I. c #C9CFDF",
"U. c #CBCEDD",
"Y. c #C9CEDD",
"T. c #CBD1DF",
"R. c #CAD1DE",
"E. c #C7CEE0",
"W. c #C9CEE1",
"Q. c #CAD0E0",
"!. c #CCD2E2",
"~. c #CCD2E2",
"^. c #D3D6E5",
"/. c #D1D5E4",
"(. c #D4D9E7",
"). c #D1D6E9",
"_. c #D3D9E9",
"`. c #D4DAEA",
"'. c #D9DDED",
"]. c #D7DEF0",
"[. c #DCDFF0",
"{. c #DCE2F2",
"}. c #E2E4F1",
/* pixels */
"} <.,.-.9.,.-.3.;.3.;.9.>.,.-.Z.W Z %.t.G.h.A.=.>.;.u B I.,.3.w.l.B.C.B.!.;._ G K ;.X.9.s.9.s.9.s.,.H l  .*.,.:.;.G.X.o.w.,.w.*.N ",
"{ } f.9.*.,.-.;.>.>.>.3.,.3.;.B.G l _ } 6.G.,.9.>.$.k _ l.3.,.,.s.,.s.B.s.*.X.B W B.s.s.1.s.,.6.>.G.o.N *.*.<.9.B.>.W J W X.>.:.M ",
"[ ` @.1.9.<.,.,.;.;.,.;.;.9.<.>.k a { _ } s.9.;.,.{ x o.l.3.k.,.,.,.,.,.s.G.s.Z N G.<.6.,.<.A.s.s.B./ x G.-.-.>.s._ I W W I W } M ",
"} ) W o.<.*.>.9.:.>.9.9.<.*.#.( u q [ } ' @.h.,.;.{ h X.I.l.v.w.,.s.,.,.9.;.e.[ a ,.9.9.t.m.*.o.*.G./ h B.;.,.;.[ W / / W W U I x ",
"' W ` ' ' } X.*.*.%.@.*.*.} o.T a q _ _ [ } 9.>.;._ 8 O.I.I.v.C.,.w.,.9.B.,.s.[ z 9.6.1.6.<.{ / } 9.} 9 %.;.*.{ W W W W W W W W z ",
"J { X.` ` ` ` { %.*.X.{ { ` } H t 0  .{ _ } <.,.t.J : } R.l.k.3.%.,.B.9.;.>.C._ x S.1.6.:.{ } } [ %.-.1 / ,.-.} W _ / W W / / I g ",
"y ` } ' } ` { ) { @.@.} X.X.{ Z q 2 W o. .{ *.,.) a % / /.C.Y.I._.!.~.!.I.l.G.o.z o.X.) R K Z K ) o.*.1 B ;.%.W J J G K H Z C C 8 ",
": M ' { ) ' { { ` W W P S M a 9 $ + 6 j A Z C M u 1 X G  ./ K W W  .*.%.;.} W C a K p t y t t 0 C ' o.6 ; t a a z x c k a h 0 % % ",
"; # a Z N k u 0 t 6 6 ; : ; : t j M A I ) ) I S c j u t q 8 8 8 q t t y a f j p 1 ; % = ; ; # = 1 a a 9 6 t t u 0 0 0 v N x J W z ",
"; Z %.,.9.-.I u   s } } ) } :.s.G.I.G.C.I.C.B.G.C.C.-. .O.2 % c +.%.%.*.:.1.t.1.%.H 9 % = 9 M n x M C I {  .X.%.} u % -.B.s.f.*.Z ",
"x s.!.b.b.Z.~.~.K M !.R.s.l.s.w.w.,.1.1.;.,.t.1.9.9.;.;.9.t B '.C.l.m.m.t.t.m.m.!.~.s.S < S X.X.W ( { } ;.9.e.>.e.>.t %.s.,.o.[ x ",
"_ 9.%.e.B.b.b.s.(.I +.9.w.3.B.,.,.9.t.t.9.f.B.s.s.<.t.I.o.0 Z l.%.O.%.:.%.#.#.%.o.:.1.>.p W ' { I I _ %.9.,.-.X.X.!.J ;.f.#.' I 6 ",
"[ 9.,.C.b.b.b.w.R.Y K ,.1.>.X.1.6.f.9.9.B.,.o.o.<.9.1.S.o.t x s.-.#.;.<.<.>.;.<.J ' ,.o.y { ` ) { { %.A.B.s.e.b.e.b./ ;.t.X.{ Z < ",
"} w.,.s.l.l.e.C.~.A B 9.m.1.{ t.<.*.<.B.*.{ [ { ` %.>.s.t.h a ,.>.%.,.<.,.<.;.<.P W S.( j { ) ` / #.f.!.s.B.b.b.b.Z.} ,.s.;.X.N 1 ",
"( ;.>.l.I.s.B.I.I.H H t.t.>.m.<.t._ ) o.` { } / ) } %.;.S.S s %.;.*.1.<.,.t.<.t.W X.A.( z _ ;.;.6.6.s.B.B.B.b.s.Z.3.P w.9.6.:.S 8 ",
"R >.w.l.l.s.W.;.*.N W S.t.t.6.>.o.o.} { ` ) ) { } [ { o.S.W u { *.%.9.,.>.9.>.,.,.,.9.W h %.<.<.6.1.6.6.B.s.B.b.b.e.M ,.9.9.>.I 6 ",
"H O.9.S.B.B.#.} >.c M  .} _ ( K J Z H N b k d x Z ` [ } ,.W a [ :.*.;.9.;.B.2.w.9.,.,.C c O.>.,.>.*.,.,.9.s.C.l.Z.%.0 -.3.9.s.W 1 ",
"x / X.f.m.G.} S %.C i V N u t t t h f y 7 1 6 6 6 j G P J Z l  .*.>.,.>.K._ I [ *.B.3.B t K ..-.%.W *.*.%.G.s.s.I.W $ ) Y.>.>. .5 ",
"a ^ [ } B.6.%.W %.a s _ o.o.,.s.s.l.9.:.%.J = d C M m t t 0 a 9.*.>.,.s.;.I P Q W ) ,.N & 8 M K W T [ ` W ;.~.I.R.s . _ I.,.~.*.s ",
"q [ [ _ %.6.,.9.%.t _ /.s.w.S.E.I.G.S.).,.@.j H >.A.4.*.,.t.G ,.>.,.;.,.W W Q W W I W Z % & 5 0 k k b H P P W o.M O . W %.H K Z i ",
"8 W { { { s.<.,.X.h -.,.,.s.<.9.l.s.I.C.W _ z N } X.6.9.w.B.P o.*.;.*./ W ^ W W W / W z M l.*.-.:.o.h = 6 x G J H I U _ _ F v h < ",
"0 W X.) { 9.<.,.( C v.3.w.9.,.6.>.s.9.G.1.} a y ! W _ s.,.!.P W -.%.X.I ^ ^ W W W W W x X.l.,.>.<.E.!.a k G.l.B.~.R.~./.T./.I.-.S ",
"8 / { [ ` <.>.<.K M ;.,.9.9.9.<.s.%.o.s.m.s.u ; N / ` o.,.B.W c l.,. ./ W ^ W ^ / U W l / ,.o.;.*.#.m.I _ C.;.,.,.3.3.,.B.I.%.U K ",
"> G } X.} $.;._ t x l.I.l.s.,.9.w.o.J w.,.s.M 1 x { _ %.s.C._ t [ } I Z Z C C B M N k 6 { w.*.%.*.*.,.W o.w.9.9.,.>.e.,.,.s.w.;.G ",
"% 2 f M C Z x j 1 l I.v.I.G.B.9.w.;.X.l.,.m.H < b { [ 9.s.l.O.; < 0 0 u z h u u u 6 % ; ! o.*.:.%.*.1.I { G.l.l.3.3.9.,.,.9.9.s.W ",
"1 k f d N T ) ` f h v.l.G.l.>.B.e.s.w.w.;.s.C 9 Z { B.s.>.l.} $ a l B P W W / U Z C t 1 J X.) ;.:.:.:.N -.~.C.b.3.3.,.9.9.,.9.6.o.",
"A !.S.9.A.f.<.%.C t v.I.C.B.*.A.!.l.s.;.,.G.Z 1 J o.9.,.w.I.I l !.B.I.B.G.I.~.G.~.>._ d W } _ { %.:.O.u %.C.b.I.Z.R.B.w.9.,.6.,.X.",
"I B.9.f.<.} { { M 8 ,.,.%.~.W.G.l.C.C.,.;.G.P : I :.,.w.,.I.A Y w.,.9.%.9.9.>.t.s.1.} j @.} { } %.%...0 } ~.Z.b.Z.b.b.B.s.;.,.s.@.",
" .l.t.<.o.{ [ S 9 6 ,.Y.;.,.t.K.~.~.I.~.s.9.N 1 [ t.,.>.k.l.s ^ ~.B.l.%.,.,.>.9.>.t.>.C *.*.%.*.%.*. .2 / ~.Z.b.Z.Z.~.~.!.G.s.f.%.",
"%.s.m.%.( { { h ; 6 Y L B M C Z W ..o._ I I y u X.9.C.B.,.,.6 I !.9.!.G.G.C.t.>.1.;.B.N [ =.;.%.*.;.) : P o.U F K W } o.*.*.{ ( G ",
"w.,.t.6.o./ ( h 4 $ 6 q s u j h u q 8 0 y 0 1 M _ >.X.o.v.'.0 B /.9.B.G.G.!.~.~.S.s.B.x } 9.*.=.X.>.I % 6 6 6 t w t 0 y y w y 0 8 ",
"l.w.1.s.9.} ' h 1 x %.;.,.w.' 6 % M _  .[ J y : 1 : ; 1 s c @ q Z c l x N Z G U K A N 6 k ! W E P U a ; - ; & $ a _ o.o.o.%.@.N 1 ",
"%.t.>.6.m.;.' M 6 [ E.m.s.W.%.6 B R.R.Z.R.~.R._ < 8 l t s B Y W _ / _ Y K Z s + # < 1 1 6 k J W A a & + + % O $ O.C.>.w.,.,.B.G.o.",
"[ W.o.%.9.9.@.N 6 o.S.>.:.1.t.a +.3.3.b.b.e.Z._...K ~.Z.Z.Z.Z.C.Z.Z.C.R.B.(.o., ^ o.-.3.9.3.B.Z.w.O./ K c c B q U w.-.>.>.X. .:.o.",
"G ~.,.s.s.,.*.Z 1 -.B.B.s.9.,.N +.-.>.e.b.R.e.*.G.x X.9.,.,.,.,.,.*.X.o.;.B.( 1 *.G.9.s.s.s.9.,.w.-._ { ;.m.[.D S ,.>.>.m.o.W 4.{ ",
"u 9.9.,.>.,.w.I 1 X.I.G.l.w.,.H o.b.e.K.b.e.Z.e.e.x %.G.s.s.9.w.%.[ o.} X.;.>.t W m.m.9.;.9.s.s.1.C.s.,.l.,.1.p M :.,.,.4.f.s.s.W ",
"q k.w.B.l.C.I.[ k ) ~.l.!.~.w.Z ..>.+.a.R.9.C.!.9.x _ W K Z x l f a f M R ' >.z X.m.:.o.) { #.,.9.>.m.>.<.s.X.4 Z <.:.6.%.) $.9.I ",
"q I.,._ G U W M u t s j M C l h { s.9.9.b.b.B.!.9.u 6 s j x A J J I Z b S j 6 f f.>.{ X.} { { o.>.>.6.s.1.m.:.1 J 6.s.*.` T T } H ",
"1 t a s z x c c c z h z f i 4 6 { >.e.b.G.G.>.%.o.a N C.l.l.~.).~.~.`.~.S.#.9 t m.#.{ ) K S S K I ) _ *.,.>.;.1 M W { [ T ! T W N ",
"$ 8 l.~.~.!.G.I.G.G._.C.I._.S.j W %.e.R.s.,.,.,.o.0 O.C.9.,.t.t.S.f.A.A.X.) x p R G S f 1 1 6 0 u u a y x H I 6 r w.%.W / ~ ! / M ",
"# I `.%.,.>.;.-.,.*.;.;.;.;.).A B ] %.!.s.9.,.,._ C ,.9.w.,.9.w.,.s.s.B. ._ j % l K / K Z z 1 % % & % % X > 6 % ; A I M v M M l 8 ",
"> ;.-.w.o.%.>.,.;.;.,.,.9.9.W.x M / Z %.s.s.;.,._ A ,.w.s.,.,.9.1.1.,.l.B.%.s B C.G.I.~.~.!.B.) 2 & & 5 s i x c x l j M Z x u 1 @ ",
"C 1.W ;.;.,.w.;.9.;.,.9.,.*.G.P z } W { 6.>.;.;.W C ,.s.b.w.3.3.3.;.3.9.l.3.v _ >.%.l.w.b.b.e.'.V * ;././.(.T.Y.Y.T.~.R.v.Y.v._ 2 ",
") o.C.9.>.,.%.,.;.,.,.;.>.,.C.H u } [ [ %.A.,.*.U c l.C.C.l.3.>.9.3.9.3.-.w.I ^ b.>.b.Z.e.B.Z.R.v x }.k.,.3.;.3.,.3.3.l.v.v.~./.g ",
"' ' ' ;.t.>.6.,.;.<.<.,.>.>.@.j f o.} _ o.1.>.,.H a Y.Z.C.Z.v.e.>.9.;.,.9.w.K P ,.w.9.C.!.-.I %.l / U.;.>.>.e.-.>.e.;.%.>.,.e.C.M ",
"W _ ! _ } } | *.*.*.%.%.@.{ I t k } I H %.<.f.*.x 0 C.v.l.Z.Y.Z.w.9.<.9.t.l.C x ' O.G.C.,.;./ %.n -.v.>.-.>.>.2.;.;.>.,.,.>.w.!.M ",
"a / %.[ ` } X.} %.*.o.o.} } I r a o.` ` } >.:.[ t 0 3.I.b.v.v.b.W.A.A.1.>.W.S r { ) ' 9.6.>.s.} c C.,.9.[  .,.;.4.,.<.4.<.1.9.l.M ",
"; y I W T E Z Z M M x k y 0 1 o ; N ) [ { X.' C : 8 *.~.R.~.I.~.S.~.6.%.%.S.H 7 ) } ` X.t.>.>.) I -.U ,.;.*.9.,.>.,.,.>.<.,.,.C.Z ",
"% o % ; ; 6 t z M G R W I A M x h a k x j l s 0 = 8 :.:.) ) ( %.<.A.f.s.%.o.x 7 { o.` X.s.<.,.I o.w./ ,.e.%.,.-.3.>.-.;.,.;.;.B.I ",
"V ..) ^ } >.C.G.G.G.I.G.I.I.Z.s.s.2.9._ 0 < $ O # < j a d k j k M S H x z z 6 $ z H I W ) o.R x { *.s.>.%.9.;.e.-.2.3.3.>.>.>.l.U ",
"_ /.} o.C.s.1.,.t.1.,.,.>.>.>.3.9.h.s.o.8 < q t t q y j k x b j 7 ; ; a C C M x x Z Z S C z ; y { { 9.,.;.,.*.-.,.,.;.;.;.;.,.B.N ",
"x w.o.%.l.9.9.1.1.s.s.9.w.C.C.9.9.=.,.W l -.C.w.k.l.1.s.6.6.6.,.X.I p >.W.m.B.S.W.A.m.G.S.~.p 0 @.) } <.h.,.9.,.>.*.9.9.,.<.6.{ j ",
"8 ..B.9.9.9.6.t.s.>.,.f.<.o.o.<.s.1.9.W x ,.w.O.O.,.,.>.,.o.! ,.s.;.x l.,.,.-.,.-.;.>.O.%.w._ 9 { E ! { o.%.%.>.*.4.=.>.=.*.} T a ",
"5 I ,.9.9.,.,.6.9.A.s.%.[ ' _ W %.9.,.@.M I -.;.,.>.>.>.t.1.X.<.s.) x l.;.,.,.,.w.,.>.;.,.X.,.x W [ ` [ ` } [ @.=.o.} | N ! } H a ",
"1 ] l.9.,.9.9.<.>.*.} ` ' } ) I { @.t.9.Z { -.-.>.w.s.o.U [ %.%.9.H a -.,.,.,.;.;.>.,.9.;.;. .H b } { { { ) ~ ` @.*.$.{ C ` @.Z p ",
", %.l.w.9.9.=.o.} { ` ) ) ` { } { { %.m.Z X.,.-.,.O.) ^ G A ! W W P 0 K o.%.*.;.-.;.o.} o.W X.z 6 ) } ) [ { ' } } o.{ } } ) I x 6 ",
"1 I ^ [ W U Z N N N j d j f n J ' [ { t.N l 9.%.o.U W ^ W ) W W W z 2 a G G I W / / ) / _ } Z 1 % d ( ' ) I W J H C n k u t 0 1 % ",
"1 Z M u 0 0 t h a a y e 6 3 6 6 C I P I c X 9 u y a u t t 6 0 6 ; ; $ ; 1 1 9 0 0 t 0 q t 6 % # $ # 6 6 9 9 6 9 9 9 r t 6 ; $ @ > ",
"% , Z { ;.;.>.*.4.>.;.;.%.@.[ S 1 6 1 u a s 6 O X % t G K M Z Z R [ %.%.%.>.9.<.<.*.%.#.} { { ) W x + 2 K -.>.-.>.w.l.l.C.,.K 8 + ",
"% t {.{.G.B.G.B.h.h.G.E.E.).].~.p 1 ..B.G.l.Z.%.Z & x !.C.I.m.~.S.,.9.s.t.s.9.s.t.B.B.A.E.m.s.!.~.I ; ^ '.C.,.l.w.t.w.>.1.Y.I.k.V ",
"X B _.%.%.9.,.;.;.,.,.;.:.;.s._.M U C.,.b.R.3.I./.o.0 J ,.t.>.X.s.#.*.9.s.t.<.s.<.;.o.@.,.9.,.9.>.F < U t.%.o.%.;.%.#.-.-.%.-.3.+.",
"$  .R.>.9.,.,.,.,.,.;.;.t.,.,.!.J _ 3.-.b.k.l.b.l.(.M c :.t.:.' s.,.9.6.6.9.%.@.[ [ } { _ o.>.,.s.o.6 Z m.>.:.9.1.<.>.:.:.*.-.>._ ",
"1 ,.,.,.o. .9.,.,.,.,.;.,.>.>.R.I _ 3.>.C.e.Z.k.l.~.x N S.t.>.>.>.*.@.{ [ ` W T T T I ! } { { o.,.B.d M 6.*.%.>.>.<.1.9.<.&.-.9.W ",
"s 3.{ ,.%.o.9.>.;.,.9.>.,.3.,.b.I W e.3.w.Z.l.b.Z.~.c j Z N x j y y y y y 0 7 0 0 7 9 0 u C I J ^ ) l x o.>.*.<.<.9.,.>.9.9.,.,.I ",
"W >.I ,.,.,.,.,.,.,.>.,.>.>.;.b.W I ,.9.l.B.B.s.;.-.c 1 G U ^ ) { ..X.X.{ W H 8 % * % > q c V g 8 > ; c { :.;.1.,.9.s.,.,.,.1.,.H "
};
