/* XPM */
static char *_21e4c53f9f24643f60ae861efb067d4RGGiEuUgV9P3ijQx[] = {
/* columns rows colors chars-per-pixel */
"53 65 246 2 ",
"   c None",
".  c #020300",
"X  c #0B0201",
"o  c #010A00",
"O  c #0B0B01",
"+  c #0D020A",
"@  c #06060B",
"#  c #130101",
"$  c #1B0101",
"%  c #150C00",
"&  c #180709",
"*  c #041906",
"=  c #181603",
"-  c #0B0B14",
";  c #190912",
":  c #0B1614",
">  c #181417",
",  c #240202",
"<  c #2B0201",
"1  c #280A07",
"2  c #330A03",
"3  c #370807",
"4  c #2A1306",
"5  c #361609",
"6  c #380C12",
"7  c #29131A",
"8  c #391617",
"9  c #240D14",
"0  c #0B2B14",
"q  c #362319",
"w  c #332712",
"e  c #191823",
"r  c #071A23",
"t  c #2A1B23",
"y  c #2D1B2A",
"u  c #2A1523",
"i  c #351C27",
"p  c #2A1E34",
"a  c #0D2326",
"s  c #17282A",
"d  c #0E3927",
"f  c #17362C",
"g  c #162B33",
"h  c #0B3836",
"j  c #153537",
"k  c #0D2330",
"l  c #2B2229",
"z  c #3B242C",
"x  c #38262A",
"c  c #292538",
"v  c #3A2433",
"b  c #3A2835",
"n  c #23393A",
"m  c #38343F",
"M  c #460A05",
"N  c #471606",
"B  c #571608",
"V  c #441A13",
"C  c #461718",
"Z  c #581817",
"A  c #540E0B",
"S  c #771C01",
"D  c #671C15",
"F  c #4B2217",
"G  c #572719",
"H  c #56270F",
"J  c #68281A",
"K  c #752918",
"L  c #673717",
"P  c #732B0D",
"I  c #431D25",
"U  c #5C1D2A",
"Y  c #4B2728",
"T  c #582725",
"R  c #4B3225",
"E  c #593325",
"W  c #462C37",
"Q  c #4A323B",
"!  c #583739",
"~  c #5B2F30",
"^  c #662927",
"/  c #752C26",
"(  c #693727",
")  c #783A2A",
"_  c #673836",
"`  c #783836",
"'  c #6E2D33",
"]  c #611B23",
"[  c #144639",
"{  c #26462E",
"}  c #764516",
"|  c #564736",
" . c #51502F",
".. c #67462A",
"X. c #74462C",
"o. c #6A4438",
"O. c #77463A",
"+. c #705D36",
"@. c #6E6037",
"#. c #103E42",
"$. c #332C41",
"%. c #313049",
"&. c #4A3D4A",
"*. c #084744",
"=. c #164A47",
"-. c #06544C",
";. c #16534B",
":. c #014E52",
">. c #0B5553",
",. c #015B53",
"<. c #075857",
"1. c #165654",
"2. c #18655C",
"3. c #206252",
"4. c #2D4D61",
"5. c #4B495B",
"6. c #524C48",
"7. c #784648",
"8. c #6F4C49",
"9. c #506B4F",
"0. c #75704F",
"q. c #585669",
"w. c #494C64",
"e. c #646276",
"r. c #7D7E6C",
"t. c #811E05",
"y. c #8C301A",
"u. c #883C2A",
"i. c #853A38",
"p. c #933C30",
"a. c #864437",
"s. c #984A35",
"d. c #8A5638",
"f. c #924B31",
"g. c #A74B36",
"h. c #A7583A",
"j. c #B75338",
"k. c #A94C2C",
"l. c #A5663F",
"z. c #905B2B",
"x. c #C1653C",
"c. c #8D3E46",
"v. c #844747",
"b. c #974946",
"n. c #895748",
"m. c #985648",
"M. c #874954",
"N. c #8A5659",
"B. c #995559",
"V. c #954C53",
"C. c #AB5646",
"Z. c #B65744",
"A. c #A55958",
"S. c #B55A57",
"D. c #AA4E48",
"F. c #886848",
"G. c #98654B",
"H. c #86724C",
"J. c #96695B",
"K. c #997751",
"L. c #AA654C",
"P. c #BA674A",
"I. c #A96551",
"U. c #B66B59",
"Y. c #BA765B",
"T. c #AC7652",
"R. c #965764",
"E. c #A15569",
"W. c #986C64",
"Q. c #9D7763",
"!. c #8A6A64",
"~. c #A86667",
"^. c #A87666",
"/. c #B97866",
"(. c #A87B73",
"). c #B27876",
"_. c #C77A5B",
"`. c #D06F58",
"'. c #C66B64",
"]. c #D66964",
"[. c #C77569",
"{. c #D67767",
"}. c #C57578",
"|. c #E27E66",
" X c #7B9067",
".X c #8E8656",
"XX c #AE825C",
"oX c #968E6B",
"OX c #968174",
"+X c #BE8269",
"@X c #AC8578",
"#X c #BA8776",
"$X c #B8956E",
"%X c #C7865C",
"&X c #C38767",
"*X c #D88869",
"=X c #D89769",
"-X c #C98A72",
";X c #C79779",
":X c #DA9A78",
">X c #D48C72",
",X c #E59876",
"<X c #EB956C",
"1X c #CBAC7B",
"2X c #FAAB6C",
"3X c #F7B46A",
"4X c #E6A67B",
"5X c #FCAB77",
"6X c #EABA79",
"7X c #FAB478",
"8X c #EFB26F",
"9X c #EDC278",
"0X c #6E6F8F",
"qX c #5D618A",
"wX c #817E85",
"eX c #8E8C97",
"rX c #BA908D",
"tX c #BCAA84",
"yX c #9A96A6",
"uX c #A29CAC",
"iX c #A8A5B3",
"pX c #B2AEB5",
"aX c #C69986",
"sX c #D59788",
"dX c #E69985",
"fX c #DAB799",
"gX c #D5AF8B",
"hX c #E5A686",
"jX c #F7AB87",
"kX c #EAB689",
"lX c #F7B487",
"zX c #E4A894",
"xX c #E5B499",
"cX c #F7B299",
"vX c #DDB5A2",
"bX c #E8BCA6",
"nX c #F8BAA6",
"mX c #EABBB4",
"MX c #F5C799",
"NX c #F3D093",
"BX c #FBC8AB",
"VX c #F8C9B8",
"CX c #EECEA9",
"ZX c #E6D596",
"AX c #B7B3C1",
"SX c #CBC5D2",
/* pixels */
"      . . .                                                                                               ",
"    o o     o                                                                                             ",
"    o o .   o                                                                                             ",
"    o . @   o                                                                                             ",
"    . . iX  o                                                                                             ",
"  o o wXSX    o                                                                                           ",
"  . . pXSXm   o                                                                                           ",
"  . - iXe.AX  o                                                                                           ",
". O 5.iX$.yX    o                                                                                         ",
". @ pXuX$.eX    o                                                                                         ",
"X . iXq.5.5.pX@ o                                                                                         ",
".   iX$.q.p yX  o o                                                                                       ",
"X   yXc q.c eX    o                                                                                       ",
".   @ 5.e.w.5.    o                                                                                       ",
".     - 5.%.      o                                                                                       ",
"  o   @ q.      o                                                                                         ",
"    . @ @     o                                                                                           ",
"    . X     *                                                                                             ",
"    . X     o                                                                                             ",
"    o . X   o                                                                                             ",
"    o . X                               o o . o o o o o                                                   ",
"    o + X                         o o . % q 5 5 5 4 4 4 X o                                               ",
"    o . X                       o = q V G -X&X=X%Xh.f.a.5 q .                                             ",
"      . X                     o = ! (.#XL.h.k.k.x.|.P.s.I.Q.q o                                           ",
"      . X                   . % L /.B K Y.P.h.g.p.P.{.f.h.&X^.4 o                                         ",
"      . X                 o % .._.h.m.a.J /.L.u.K s.L.P P l.:X( X                                         ",
"      . X                 O w &XP.Z.s.( V F G.G ' Z G L L a.[.` 8 .                                       ",
"      . X               o # ..&XZ.s.J E R R n.mXmXmXVXbXCX;XJ ` R O                                       ",
"    o . .               o x -XP.h.K H vXfX@X#XaXVXVXfX#X#XgX@XV R o                                       ",
"    o . .               O 8 -Xh.s.J d.fXQ.5 N ( ;XxXG.H 2 ~ !.! q O                                       ",
"    o . .               . V >XP./ J xXaX2 8 Y _ F.aXX.E Y , 8.OXX 0.                                      ",
"    . . .   o           X 5 U.s.J a.nXzXT Y T 7.bXBXaXG Y Y !.OX# O                                       ",
"    . @ X   .         o = ..` / H xXnXsXO.n.sXsXzXxX#XaX@X8.W.J.5 | o                                     ",
"    . @ X   .       o = F.;XZ G G xXzX/.d.G.nXnXzX-X( VXaXO.m.G.X.tX .o                                   ",
"    o . X X .     o % K.MX;XN O.G Q.;XBXMXcXVXvX#X@Xo.rXVXBXBXT.L CXoXo                                   ",
"    o . X . o     X 5 MX6X=Xd.L E G bXnXhXsXQ.o.2 o.~ 8 ^.zXxXXX} gXtX .o                                 ",
"    . . X . o   o % K.lX7X7X:XX.F F (.rX7.^ B N N A A Z ^ ` J.F.} kXZXoXo   o o o                         ",
"    . X X o o   o w fXlX<X2X=XY.M ~ 1 ! U ] a.f.s.s.b.c./ C C o.G.4XCXoXo o s f f     o                   ",
"    . X X o o   o q fXMX=X_.*X,Xf.H 6 Y b.p.s.C.h.h.h.C.s./ 2 _ sX/.^. .= f [ 3.2.2.-.h * o o             ",
"    . X + o o   o % H.T.kXT.P.jX4Xd.V _ u.g.g.t.S S S y.C./ 2 o.sXa.L F. .{ 3.-.,.,.<.2.=.d   o           ",
"    o . + X o   . $ G ( n.^.L.>XjX-XN J u.g.j.t.S S t.y.C.J H W.J.( +XxXH.* ;.-.,.,.,.-.2.=.9.  o         ",
"    o . + + o   . , M.v._ ^ J U.:X:Xd.H H s.j.Z.j.j.j.j.s.J ) sX( X.jXlX$X .d -.<.:.<.>.1.0  X0.o         ",
"    o . + . o   . , M.E.7.6 ^ J L.lX4X} N J s.j.j.k.j.Z.) G T.I.) Y.lX7X6XF.0 =.>.:.2.*.h 9.fX1X@.o       ",
"    o .   + o   X < c.E.M.6 B./ K Y.=XkXd.N a.y.g.s.D.a.H ..;X) ) jX5X2X7X$X .j 1.>.-.[ 0 .XNXNX+.=       ",
"    o . # # .   X < M.R.7.C R.V.' / _.4XhXm.M G i.a.` J ( ^.I.P P.lX5X2X3X6X0.: =.>.1.d  .gX9X6X1X@.o     ",
"    . . 1 $ X # , T U 7.Y 6 ' ~.c.Z U.,XlXhXn.M A A M J Y.:Xu.D *X5X7X3X3X7X;X| a =.[ 0 .XNX8X8XMXH.      ",
"    o # $ < < 3   O.M _ 1 # 3 ~.B.^ ` C.*XlX,XY.L.h.l.%XjXY.( J '.<X7X7X3X7XlXG.7 s : 6.1X9X7X7XMXH.o     ",
"  o X $ _ ` ` i.b.` C 4 X X 5 W.B.v.M m.Y.=X4X<X,X*XlXlX,Xm.2 T [.`.<X5X5X5XjX&XQ &.eXr..X6X7X7XMX..X     ",
"  o X _ m.b.c.c.D M < # . . 4 !.N.N._ T m.[.{.*X<X|.jXdX/._ $ T '.`.{.|.<XjXlXJ.Q e.iXpX0.K.lXlXkX;X..    ",
"  o $ O.v.i.B M < < X X   . % 8 8 C 3 < T m.U.'.{.P.>X[.a.V 1 Y /.'.'.'._.*X+X8.c qX0XuX8.+.kX4XkXgX..    ",
"  . X 5 5 < $ X o o       . $ Y 6 6 6 6 6 T n.^.A.A.~.O.V 8 6 , C Z Z B B B Z 1 p qX0XyX6.5 H L H L 1     ",
"  o . # # X o o           . 1 ! Y 8 i I 8 6 6 C V 5 V 3 6 8 8 I N.B.V.m.m.m.V.! $.w.qX0X&.o.;X/.&XG.5     ",
"    o .   X o             o X 9 $ & & & ; ; & X & X X # & & X i ~.'.{.{.'.[.}.R.c %.w.%.Q ^.dXcXdX/.R .   ",
"    o .   . o             o # z z W x t y y y l l t b t t x t 8 B.'.].].].].A._ e k r s 7 8.-X{.[.)   o   ",
"    o .   . .             o X Q Q z z b W v y y y y v b v b v 7 ^ S.].].].S.` 7 j h =.=.a | /.'.[.^ X     ",
"    o + + + .             o X Q W v b b i y u u u y y y v b b u C B.S.S.'.B.Y > h *.>.;.[ l O.[./.^ .     ",
"    o . + . o             o X Q W z z t 9 X # + ; 7 u u i v W 7 I v.A.D.B._ t g #.;.>.>.1.a ! ).~.V o     ",
"    . . - @ o             o X W W v t + . . o . X X & 7 u i v i 7 Y B.A.N.Q e j *.1.:.<.>.=.l 8._ ,       ",
"    o . x + .             o X z i 9 X . o       o . X X 9 t z t & x M.N.~ > a #.>.*.,.,.-.;.s 6.  X       ",
"    o . x X .             o X 7 ; & . o             o X # # 7 $ X # T N.W : g #.>.<.,.,.,.>.n &   .       ",
"    . X & X o             o $ ! Q # . o               . # Y 7.6 # & 8 I ; e g j *.>.-.-.>.1.a   o         ",
"    . . . . o             . # ! x X X                 o # 2 ` 6 X X # $ X - c g h *.;.;.;.h   o o         ",
"    o . X . o             . $ ! q . o                 o # 5 ` V X   X . X + - e s n g j g   @ o           ",
"    o o . . o             o # Y > o .                   X $ F 2 o       . . + + : : - - . o o             ",
"o o . . . .   . . . o o . . X X + . . . . . o . . . . . . X # # . . . . . . . + @ @ @ . . .               "
};
